<svg width="65" height="65" viewBox="0 0 65 65" fill="none" xmlns="http://www.w3.org/2000/svg">
<g clip-path="url(#clip0_11966_59467)">
<rect width="65" height="65" rx="13" fill="#F0F1F4"/>
<path d="M-0.0728642 -0.260193L64.9997 -0.258004L64.996 73.1492L29.6521 73.1433C30.3703 66.9426 32.1115 60.1158 36.252 55.2505C38.6988 55.3119 46.2489 56.098 47.9932 54.7048C48.4244 54.3608 48.6737 53.8457 48.8254 53.3278C49.2009 52.0465 49.3057 50.5489 49.4736 49.2201C49.8212 46.287 50.1526 43.351 50.4671 40.4143C51.7576 39.5486 53.1229 39.1629 54.2917 37.9554C53.2497 36.3387 52.2496 34.6959 51.292 33.0283C49.8571 30.4171 48.5446 27.6313 48.8973 24.5653C48.9435 23.8126 49.4743 22.7449 49.4721 22.0225C49.4604 17.5661 46.7511 12.3995 44.003 9.11713C42.5849 14.871 40.2247 19.3985 37.4135 24.5679C38.8939 23.8335 42.0944 22.3376 43.6994 21.992C44.0426 21.9181 47.2292 22.472 47.8708 22.5657C47.4213 23.3559 47.043 24.0409 46.6404 24.856L43.5807 23.7091C41.4345 23.9987 39.3954 24.3885 37.269 24.7897C34.0553 30.5834 30.228 35.9143 26.6324 41.4516C20.3978 51.0529 13.184 61.9115 10.5094 73.1477L-0.0872343 73.1521L-0.0915619 23.0828C-0.0908286 15.3787 -0.190694 7.43027 -0.0728642 -0.260193Z" fill="#1A1E26"/>
<path d="M18.3846 12.7265C18.6745 13.0714 19.0118 15.249 19.0856 15.7989C19.3068 17.4476 19.1946 19.1526 19.0596 20.8048C21.2748 20.3224 22.6187 20.0428 24.9322 20.0207C22.4167 24.409 19.5021 27.0451 14.8251 29.0177C12.6817 29.8218 11.2646 30.056 9.05255 30.3252C8.97651 28.034 9.11209 26.121 9.73269 23.8894C11.0094 19.162 14.125 15.1421 18.3846 12.7265Z" fill="#FFAE00"/>
<path d="M6.26348 25.1416C6.5534 25.4865 6.89076 27.664 6.96452 28.214C7.18574 29.8626 7.07349 31.5677 6.93854 33.2198C9.15368 32.7374 10.4976 32.4578 12.8111 32.4357C10.2956 36.824 7.38099 39.4601 2.70401 41.4327C0.560651 42.2368 -0.856461 42.4711 -3.06855 42.7403C-3.14459 40.449 -3.009 38.536 -2.3884 36.3044C-1.1117 31.577 2.0039 27.5572 6.26348 25.1416Z" fill="#FFAE00"/>
<path d="M33.6943 -2.38685C33.8509 -2.43928 33.7631 -2.42863 33.9619 -2.39027C34.295 -1.86572 34.4276 -1.01168 34.5394 -0.394281C36.1132 8.26501 31.2475 16.0047 22.5468 17.5668C22.25 17.6202 22.1713 17.6511 21.8681 17.5966C21.6135 17.1832 21.5848 16.2074 21.5635 15.7209C21.4301 12.9532 21.9376 10.1916 23.0468 7.65088C25.089 2.91869 28.9344 -0.50283 33.6943 -2.38685Z" fill="#FFAE00"/>
<path d="M45.2733 27.7939C45.4326 28.0164 44.878 29.634 44.8692 29.9836C44.8546 30.6197 45.3376 31.7663 45.562 32.3754C43.1198 32.0508 42.1778 31.9561 39.9103 30.9862C39.0092 30.5563 38.516 30.2223 37.707 29.6295C40.101 29.1484 42.9013 28.4126 45.2733 27.7939Z" fill="#1A1E26"/>
</g>
<defs>
<clipPath id="clip0_11966_59467">
<rect width="65" height="65" rx="13" fill="white"/>
</clipPath>
</defs>
</svg>
