<svg width="150" height="150" viewBox="0 0 150 150" fill="none" xmlns="http://www.w3.org/2000/svg">
<rect width="150" height="150" fill="#00337B"/>
<g clip-path="url(#clip0_11987_7263)">
<path d="M76.9917 68.8146C78.5365 68.2935 81.1458 67.8404 85.294 68.2219C85.294 68.2219 86.1403 68.2911 86.7999 68.547C86.7999 68.547 87.4655 68.7865 87.2354 69.6938C87.2354 69.6938 86.9267 70.8113 86.692 71.2972C86.5206 71.708 86.233 72.0191 85.8586 71.9041C85.1613 71.7374 84.3878 71.6505 83.5732 71.6646C82.7903 71.6787 82.0531 71.7808 81.3841 71.9604C80.4368 72.2034 79.6656 72.9382 79.3722 73.8631L74.0397 91.1319C73.8706 91.6766 73.3647 92.0698 72.7661 92.0698H67.5944C67.2411 92.0698 66.9535 91.781 66.9535 91.4277C66.9535 91.3632 66.9629 91.2986 66.9817 91.2399L72.225 74.2681C73.1664 71.2878 74.8296 69.5753 76.9401 68.8334L76.9917 68.8146ZM59.9963 80.3423C60.0057 80.313 60.0104 80.2813 60.0104 80.2484C60.0104 80.0958 59.9047 79.9702 59.7627 79.9362L59.7568 79.935C59.7568 79.935 53.8738 79.4538 51.9922 80.9949C49.9897 82.6336 49.6857 86.1737 49.7526 86.4613C49.7526 86.4613 49.3934 88.8981 53.7365 88.3053C53.7365 88.3053 54.1708 88.2654 54.8117 88.114L54.8222 88.1081C56.644 87.7067 57.9269 86.8721 58.5279 85.0868L59.9963 80.3423ZM50.6517 76.8245C55.2647 75.8948 60.9518 76.4794 60.9518 76.4794C61.0973 76.4794 61.2194 76.3843 61.2593 76.2528L61.7335 74.7128C62.5634 72.0448 59.6336 71.8159 59.6336 71.8159C59.0937 71.7596 58.5713 71.7267 58.0772 71.7079L58.0678 71.7103C54.0252 71.6023 50.883 72.0025 49.7961 72.2033C49.7961 72.2033 48.8958 72.3652 48.8089 72.3828L48.6152 72.4204C48.1797 72.5331 48.0823 72.2314 48.1551 71.8288L48.1574 71.8218C48.1574 71.8218 48.3558 70.7677 49.1481 69.6878C49.5096 69.1948 49.8641 68.764 51.0626 68.534C52.4324 68.271 57.5173 67.5316 63.6045 68.1537C63.6045 68.1537 70.6132 68.75 68.6483 75.0661L63.6855 91.1318C63.5177 91.6764 63.0106 92.0697 62.412 92.0697H57.691C57.2661 92.0697 56.921 91.7257 56.921 91.2997C56.921 91.2997 56.9245 91.2187 56.9362 91.1576L57.0442 90.6259C57.0454 90.6177 57.0466 90.6095 57.0466 90.6001C57.0466 90.5273 56.9855 90.4674 56.9139 90.4674C56.8858 90.4674 56.8611 90.4804 56.8376 90.4909C53.8492 91.93 50.6189 92.2047 50.6189 92.2047C43.1113 92.97 42.4282 89.7573 42.346 88.506C42.184 85.9894 43.4271 80.9996 46.3052 78.5887C47.4262 77.6496 48.9087 77.1754 50.6517 76.8245ZM131.501 80.3423C131.51 80.313 131.516 80.2813 131.516 80.2484C131.516 80.0958 131.411 79.9702 131.269 79.9362L131.263 79.935C131.263 79.935 125.378 79.4538 123.498 80.9949C121.496 82.6336 121.193 86.1737 121.258 86.4613C121.258 86.4613 120.898 88.8981 125.241 88.3053C125.241 88.3053 125.675 88.2654 126.316 88.114L126.327 88.1081C128.15 87.7067 129.433 86.8721 130.034 85.0868L131.501 80.3423ZM122.155 76.8245C126.769 75.8948 132.458 76.4794 132.458 76.4794C132.602 76.4794 132.725 76.3843 132.765 76.2528L133.241 74.7128C134.07 72.0448 131.138 71.8159 131.138 71.8159C130.599 71.7596 130.077 71.7267 129.583 71.7079L129.571 71.7103C125.53 71.6023 122.388 72.0025 121.303 72.2033C121.303 72.2033 120.399 72.3652 120.315 72.3828L120.12 72.4204C119.684 72.5331 119.586 72.2314 119.662 71.8288L119.663 71.8218C119.663 71.8218 119.862 70.7677 120.654 69.6878C121.014 69.1948 121.369 68.764 122.568 68.534C123.937 68.271 129.023 67.5316 135.11 68.1537C135.11 68.1537 142.12 68.75 140.154 75.0661L135.19 91.1318C135.022 91.6764 134.516 92.0697 133.919 92.0697H129.197C128.771 92.0697 128.426 91.7257 128.426 91.2997C128.426 91.2997 128.43 91.2187 128.441 91.1576L128.55 90.6259C128.551 90.6177 128.551 90.6095 128.551 90.6001C128.551 90.5273 128.491 90.4674 128.419 90.4674C128.39 90.4674 128.366 90.4804 128.343 90.4909C125.354 91.93 122.124 92.2047 122.124 92.2047C114.616 92.97 113.934 89.7573 113.853 88.506C113.69 85.9894 114.932 80.9996 117.811 78.5887C118.931 77.6496 120.415 77.1754 122.155 76.8245ZM35.6619 71.1621C34.9001 72.5648 33.4164 73.5155 31.7074 73.5155H23.5413C23.3558 73.5155 23.2079 73.3665 23.2079 73.1834C23.2079 73.147 23.2138 73.1118 23.2244 73.0789L23.2819 72.8911L25.0214 67.2616C25.4252 65.7486 26.8056 64.6346 28.4454 64.6346H35.609C36.3192 64.6346 36.9096 65.137 37.0469 65.8061C37.0469 65.8061 37.5329 67.7734 35.6619 71.1621ZM31.8001 85.2171C30.9197 86.8393 29.2013 87.925 27.2235 87.925H19.0891C18.9048 87.925 18.7557 87.7759 18.7557 87.5905C18.7557 87.5576 18.7616 87.5236 18.7722 87.4919L21.7372 77.8926C21.7794 77.7576 21.905 77.6602 22.0553 77.6602L31.7426 77.6579C32.5619 77.6579 33.2462 78.2401 33.4047 79.0136C33.4047 79.0136 33.9681 81.2943 31.8001 85.2171ZM39.9251 60.4912H28.5733C25.6107 60.4865 23.5671 60.8996 22.2184 61.3539L22.1574 61.375C19.6819 62.2448 17.7298 64.2555 16.6253 67.7522L9.54617 90.6693C9.51448 90.7679 9.49805 90.8759 9.49805 90.9874C9.49805 91.5861 9.98282 92.0708 10.5826 92.0708H25.4346V92.0697H31.0383C41.4639 91.66 41.6916 80.1416 41.6916 80.1416C41.6916 78.0605 40.3746 76.2892 38.5294 75.6131L38.5118 75.6061C38.4543 75.5826 38.4167 75.5263 38.4167 75.4605C38.4167 75.3901 38.4625 75.3302 38.5247 75.3103C39.891 74.8877 41.0707 74.3442 42.0261 73.3266L42.0379 73.3148C44.7916 70.2876 44.8879 65.4551 44.8879 65.4551C44.8879 62.7143 42.667 60.4912 39.9251 60.4912ZM88.9522 91.1324C88.7844 91.677 88.2773 92.0703 87.6786 92.0703H82.5057C82.1536 92.0703 81.8672 91.7815 81.8672 91.4282C81.8672 91.3625 81.8766 91.2991 81.8942 91.2404L88.6635 69.3222C88.8325 68.7787 89.3384 68.3843 89.937 68.3843H95.1087C95.4632 68.3843 95.7496 68.6719 95.7496 69.0252C95.7496 69.0909 95.7414 69.1555 95.7215 69.2142L88.9522 91.1324ZM93.6961 66.1152C94.3182 66.114 94.8617 66.0659 95.3359 65.9813L95.3476 65.9778C96.1423 65.8346 96.8055 65.317 97.1505 64.6139L97.1529 64.6033C97.3243 64.2477 97.4816 63.8392 97.6248 63.3755L98.1647 61.6254C98.2774 61.2474 98.349 60.9188 98.3877 60.63L98.3889 60.6206C98.457 60.0525 98.1729 59.6311 97.6001 59.5161L97.5907 59.5149C97.248 59.4457 96.8325 59.4058 96.3301 59.4058H94.7091C94.087 59.4069 93.5435 59.4551 93.0704 59.5396L93.0575 59.5419C92.2629 59.6863 91.5997 60.2039 91.2569 60.9059L91.2522 60.9164C91.082 61.2733 90.9236 61.6806 90.7816 62.1454L90.2416 63.8955C90.1266 64.2723 90.055 64.6021 90.0186 64.8921L90.0162 64.8991C89.9493 65.4684 90.2322 65.8886 90.8062 66.0036L90.8133 66.0072C91.156 66.0741 91.5727 66.1152 92.0763 66.1152H93.6961ZM106.413 59.5052H105.938C105.926 59.5064 105.914 59.5064 105.91 59.5064L103.112 59.5052C102.513 59.5052 102.007 59.9007 101.838 60.443L92.3242 91.2398C92.3054 91.2997 92.296 91.363 92.296 91.4276C92.296 91.7809 92.5824 92.0697 92.938 92.0697H98.1098C98.7084 92.0697 99.2143 91.6764 99.381 91.1318L108.38 61.9971C109.03 59.8831 107.31 59.5486 106.413 59.5052ZM117.049 59.5052H116.574C116.562 59.5064 116.552 59.5064 116.548 59.5064L113.745 59.5052C113.149 59.5052 112.642 59.9007 112.474 60.443L102.96 91.2398C102.942 91.2997 102.932 91.363 102.932 91.4276C102.932 91.7809 103.219 92.0697 103.573 92.0697H108.745C109.344 92.0697 109.849 91.6764 110.018 91.1318L119.017 61.9971C119.664 59.8831 117.945 59.5486 117.049 59.5052ZM23.8363 104.305H24.6978V98.7766H23.8363V104.305ZM27.4034 103.631C27.144 103.631 27.0184 103.471 27.0184 103.147V100.912H27.961L28.2298 100.212H27.0184V99.009L26.1651 99.2872V100.212H25.4925V100.912H26.1651V103.471C26.1651 104.009 26.4339 104.396 27.0806 104.396C27.4492 104.396 27.9246 104.251 28.3014 103.964L28.0596 103.38C27.907 103.488 27.6558 103.631 27.4034 103.631ZM135.241 103.237C134.944 103.237 134.711 103.488 134.711 103.812C134.711 104.143 134.944 104.396 135.241 104.396C135.545 104.396 135.778 104.143 135.778 103.812C135.778 103.488 135.545 103.237 135.241 103.237ZM135.187 98.8294H131.865L132.018 99.61L134.154 99.5654C133.507 100.535 132.771 102.24 132.485 104.332H133.364C133.687 102.321 134.127 100.796 135.187 99.2872V98.8294ZM128.338 99.61L130.474 99.5654C129.828 100.535 129.091 102.24 128.805 104.332H129.684C130.008 102.321 130.447 100.796 131.506 99.2872V98.8294H128.185L128.338 99.61ZM125.914 103.65C125.321 103.65 124.836 103.354 124.836 102.806C124.836 102.258 125.294 101.9 125.591 101.8C126.254 101.927 126.874 102.231 126.874 102.868C126.874 103.372 126.461 103.65 125.914 103.65ZM125.877 99.4762C126.399 99.4762 126.775 99.799 126.775 100.203C126.775 100.688 126.38 101.002 126.111 101.182C125.501 101.047 124.971 100.732 124.971 100.185C124.971 99.7896 125.384 99.4762 125.877 99.4762ZM126.847 101.46V101.433C127.224 101.172 127.646 100.804 127.646 100.185C127.646 99.3236 127.001 98.7308 125.896 98.7308C124.755 98.7308 124.118 99.4046 124.118 100.203C124.118 100.786 124.433 101.163 124.873 101.45V101.477C124.433 101.711 123.967 102.124 123.967 102.868C123.967 103.793 124.648 104.396 125.85 104.396C127.036 104.396 127.754 103.776 127.754 102.833C127.754 102.159 127.44 101.747 126.847 101.46ZM120.591 99.6828L120.832 100.355L122.126 99.7814V104.305H122.962V98.8294H122.314L120.591 99.6828ZM116.04 101.8C116.04 101.289 116.345 100.804 116.857 100.804C117.396 100.804 117.647 101.325 117.656 101.8H116.04ZM116.866 100.104C115.816 100.104 115.161 101.056 115.161 102.223C115.161 103.345 115.752 104.396 117.055 104.396C117.512 104.396 118.033 104.278 118.419 104.009L118.186 103.398C117.88 103.552 117.556 103.65 117.216 103.65C116.515 103.65 116.059 103.147 116.049 102.465H118.545V102.213C118.545 100.939 117.907 100.104 116.866 100.104ZM113.554 103.606C112.781 103.606 112.459 102.914 112.459 102.231C112.459 101.495 112.853 100.877 113.571 100.877C113.94 100.877 114.218 100.948 114.496 101.082L114.522 100.274C114.28 100.185 113.94 100.104 113.509 100.104C112.378 100.104 111.605 101.074 111.605 102.285C111.605 103.426 112.234 104.396 113.392 104.396C113.921 104.396 114.352 104.251 114.667 104.054L114.469 103.39C114.201 103.515 113.894 103.606 113.554 103.606ZM109.585 100.104C109.048 100.104 108.644 100.311 108.213 100.643L108.114 100.203H107.405V104.305H108.258V101.379C108.563 101.128 108.922 100.912 109.299 100.912C109.828 100.912 109.909 101.415 109.909 101.854V104.305H110.771V101.568C110.771 100.508 110.16 100.104 109.585 100.104ZM105.807 98.5512C105.493 98.5512 105.26 98.8024 105.26 99.1158C105.26 99.4304 105.493 99.6828 105.807 99.6828C106.112 99.6828 106.355 99.4222 106.355 99.1158C106.355 98.793 106.112 98.5512 105.807 98.5512ZM105.385 104.305H106.239V100.212H105.385V104.305ZM103.402 101.352C102.728 100.948 102.091 100.67 102.091 100.149C102.091 99.7004 102.45 99.5032 102.925 99.5032C103.375 99.5032 103.842 99.637 104.209 99.8354L104.263 98.982C103.985 98.8564 103.464 98.7308 102.89 98.7308C101.884 98.7308 101.202 99.3318 101.202 100.247C101.202 101.109 101.884 101.514 102.54 101.891C103.177 102.258 103.5 102.455 103.5 102.851C103.5 103.291 103.141 103.606 102.674 103.606C102.253 103.606 101.723 103.434 101.382 103.272L101.113 104.027C101.571 104.251 102.109 104.396 102.72 104.396C103.715 104.396 104.424 103.776 104.424 102.806C104.424 102.078 104.047 101.738 103.402 101.352ZM98.4377 103.237C98.1408 103.237 97.9083 103.488 97.9083 103.812C97.9083 104.143 98.1408 104.396 98.4377 104.396C98.7429 104.396 98.9765 104.143 98.9765 103.812C98.9765 103.488 98.7429 103.237 98.4377 103.237ZM97.1642 100.203L96.2557 103.318H96.238L95.1429 100.203H94.2273L95.8249 104.386C95.5467 105.265 95.3225 105.544 94.9363 105.544C94.7215 105.544 94.5865 105.526 94.3987 105.445L94.1827 106.127C94.4163 106.225 94.6675 106.271 94.9645 106.271C95.7181 106.271 96.1934 105.885 96.6336 104.529L98.0246 100.203H97.1642ZM92.4596 100.104C91.9208 100.104 91.5171 100.311 91.0863 100.643L90.9877 100.203H90.2775V104.305H91.1309V101.379C91.4361 101.128 91.7941 100.912 92.172 100.912C92.7014 100.912 92.7824 101.415 92.7824 101.854V104.305H93.644V101.568C93.644 100.508 93.0336 100.104 92.4596 100.104ZM88.2844 103.336C88.1412 103.471 87.89 103.658 87.4863 103.658C87.0379 103.658 86.8137 103.398 86.8137 103.03C86.8137 102.644 87.0649 102.429 87.6482 102.411L88.2844 102.393V103.336ZM89.1566 101.558C89.1566 100.5 88.5896 100.104 87.6835 100.104C87.1635 100.104 86.6787 100.22 86.1845 100.49L86.4533 101.128C86.7057 101.002 87.1271 100.84 87.5133 100.84C87.9616 100.84 88.2938 101.028 88.2938 101.603V101.719L87.5672 101.747C86.5531 101.792 85.9509 102.258 85.9509 103.102C85.9509 103.892 86.5167 104.396 87.1987 104.396C87.7374 104.396 88.1048 104.162 88.3478 103.919L88.5192 104.305H89.2282C89.1742 104.135 89.1566 103.839 89.1566 103.057V101.558ZM83.2313 103.658C83.0071 103.658 82.8627 103.614 82.6843 103.542V100.948C82.8275 100.904 82.9801 100.877 83.2137 100.877C83.8686 100.877 84.4168 101.307 84.4168 102.24C84.4168 103.102 83.9672 103.658 83.2313 103.658ZM83.2583 100.104C82.6479 100.104 82.1819 100.257 81.8309 100.382V106.181H82.6843V104.288C82.8545 104.35 83.0341 104.396 83.2677 104.396C84.3804 104.396 85.296 103.542 85.296 102.196C85.296 100.921 84.5694 100.104 83.2583 100.104ZM79.4528 100.104C78.9951 100.104 78.5185 100.32 78.0701 100.732C77.9175 100.338 77.5583 100.104 77.0736 100.104C76.6428 100.104 76.1944 100.284 75.7448 100.651L75.6462 100.203H74.9279V104.305H75.7894V101.37C76.0688 101.128 76.401 100.894 76.8048 100.894C77.2977 100.894 77.3881 101.28 77.3881 101.765V104.305H78.2497V101.361C78.5185 101.128 78.8601 100.894 79.2639 100.894C79.758 100.894 79.839 101.262 79.839 101.747V104.305H80.7088V101.487C80.7088 100.436 80.0984 100.104 79.4528 100.104ZM72.1554 103.668C71.5262 103.668 71.14 103.102 71.14 102.25C71.14 101.406 71.4816 100.832 72.146 100.832C72.7927 100.832 73.1695 101.397 73.1695 102.25C73.1695 103.084 72.8186 103.668 72.1554 103.668ZM72.146 100.104C71.6166 100.104 71.1494 100.311 70.8266 100.67C70.4675 101.056 70.2609 101.621 70.2609 102.267C70.2609 102.922 70.4675 103.506 70.8536 103.892C71.1682 104.216 71.6166 104.396 72.146 104.396C72.7024 104.396 73.1601 104.18 73.4923 103.82C73.8515 103.444 74.0487 102.886 74.0487 102.24C74.0487 101.612 73.8609 101.056 73.5193 100.678C73.1871 100.311 72.72 100.104 72.146 100.104ZM68.3582 103.569C67.3252 103.569 66.7512 102.663 66.7512 101.549C66.7512 100.526 67.3522 99.5478 68.4204 99.5478C68.9145 99.5478 69.2913 99.6546 69.6951 99.8706L69.7139 98.955C69.3993 98.847 68.9767 98.7308 68.411 98.7308C66.8592 98.7308 65.8169 99.9422 65.8169 101.612C65.8169 103.192 66.7512 104.396 68.2678 104.396C68.8241 104.396 69.3089 104.278 69.8125 104.018L69.5695 103.318C69.1833 103.471 68.8159 103.569 68.3582 103.569ZM62.3929 103.56C62.2767 103.606 62.0878 103.641 61.9176 103.641C61.0642 103.641 60.5982 103.048 60.5982 102.25C60.5982 101.379 61.1546 100.85 61.8823 100.85C62.1241 100.85 62.2497 100.877 62.3929 100.921V103.56ZM62.3929 100.158C62.2404 100.131 62.0795 100.104 61.846 100.104C60.6346 100.104 59.7355 101.028 59.7355 102.294C59.7355 103.695 60.678 104.396 61.8284 104.396C62.4387 104.396 62.9223 104.261 63.2463 104.072V98.4432H62.3929V100.158ZM57.1895 103.668C56.5616 103.668 56.1754 103.102 56.1754 102.25C56.1754 101.406 56.517 100.832 57.1813 100.832C57.8269 100.832 58.2037 101.397 58.2037 102.25C58.2037 103.084 57.8539 103.668 57.1895 103.668ZM57.1813 100.104C56.6508 100.104 56.1848 100.311 55.8608 100.67C55.5028 101.056 55.2962 101.621 55.2962 102.267C55.2962 102.922 55.5028 103.506 55.8878 103.892C56.2024 104.216 56.6508 104.396 57.1813 104.396C57.7377 104.396 58.1955 104.18 58.5277 103.82C58.8857 103.444 59.084 102.886 59.084 102.24C59.084 101.612 58.895 101.056 58.5546 100.678C58.2225 100.311 57.7553 100.104 57.1813 100.104ZM52.87 103.668C52.2408 103.668 51.8547 103.102 51.8547 102.25C51.8547 101.406 52.1962 100.832 52.8606 100.832C53.5062 100.832 53.8841 101.397 53.8841 102.25C53.8841 103.084 53.5332 103.668 52.87 103.668ZM52.8606 100.104C52.3312 100.104 51.864 100.311 51.5412 100.67C51.1821 101.056 50.9755 101.621 50.9755 102.267C50.9755 102.922 51.1821 103.506 51.5682 103.892C51.8816 104.216 52.3312 104.396 52.8606 104.396C53.417 104.396 53.8747 104.18 54.2069 103.82C54.5661 103.444 54.7633 102.886 54.7633 102.24C54.7633 101.612 54.5755 101.056 54.2339 100.678C53.9017 100.311 53.4346 100.104 52.8606 100.104ZM47.7076 104.305H48.5786V102.007H50.2489V101.226H48.5786V99.556H50.5717L50.8323 98.7754H47.7076V104.305ZM43.7226 100.104C43.1839 100.104 42.7801 100.311 42.3493 100.643L42.2507 100.203H41.5417V104.305H42.3939V101.379C42.6991 101.128 43.0583 100.912 43.435 100.912C43.9644 100.912 44.0454 101.415 44.0454 101.854V104.305H44.907V101.568C44.907 100.508 44.2978 100.104 43.7226 100.104ZM39.5486 103.336C39.4054 103.471 39.1542 103.658 38.7493 103.658C38.3009 103.658 38.0767 103.398 38.0767 103.03C38.0767 102.644 38.3279 102.429 38.9113 102.411L39.5486 102.393V103.336ZM40.4196 101.558C40.4196 100.5 39.8538 100.104 38.9476 100.104C38.4265 100.104 37.9417 100.22 37.4487 100.49L37.7175 101.128C37.9687 101.002 38.3913 100.84 38.7763 100.84C39.2258 100.84 39.558 101.028 39.558 101.603V101.719L38.8303 101.747C37.8161 101.792 37.2151 102.258 37.2151 103.102C37.2151 103.892 37.7809 104.396 38.4629 104.396C39.0005 104.396 39.369 104.162 39.612 103.919L39.7822 104.305H40.4912C40.4372 104.135 40.4196 103.839 40.4196 103.057V101.558ZM35.8418 98.5512C35.5272 98.5512 35.2936 98.8024 35.2936 99.1158C35.2936 99.4304 35.5272 99.6828 35.8418 99.6828C36.147 99.6828 36.3888 99.4222 36.3888 99.1158C36.3888 98.793 36.147 98.5512 35.8418 98.5512ZM35.4192 104.305H36.2726V100.212H35.4192V104.305ZM34.2173 103.579C34.0013 103.579 33.9391 103.479 33.9391 103.147V98.4432H33.0763V103.533C33.0763 104.018 33.3099 104.396 33.8933 104.396C34.1175 104.396 34.3335 104.35 34.5764 104.216L34.4685 103.542C34.3605 103.579 34.2701 103.579 34.2173 103.579ZM31.129 103.336C30.9858 103.471 30.7346 103.658 30.3297 103.658C29.8813 103.658 29.6571 103.398 29.6571 103.03C29.6571 102.644 29.9083 102.429 30.4917 102.411L31.129 102.393V103.336ZM32 101.558C32 100.5 31.4342 100.104 30.528 100.104C30.0069 100.104 29.5221 100.22 29.0279 100.49L29.2979 101.128C29.5491 101.002 29.9705 100.84 30.3567 100.84C30.8062 100.84 31.1384 101.028 31.1384 101.603V101.719L30.4107 101.747C29.3965 101.792 28.7955 102.258 28.7955 103.102C28.7955 103.892 29.3613 104.396 30.0433 104.396C30.5809 104.396 30.9494 104.162 31.1924 103.919L31.3626 104.305H32.0716C32.0176 104.135 32 103.839 32 103.057V101.558ZM18.7737 101.8C18.7737 101.289 19.0789 100.804 19.5907 100.804C20.1282 100.804 20.3806 101.325 20.39 101.8H18.7737ZM19.5989 100.104C18.5483 100.104 17.8933 101.056 17.8933 102.223C17.8933 103.345 18.4861 104.396 19.7878 104.396C20.2456 104.396 20.7668 104.278 21.1518 104.009L20.9182 103.398C20.6142 103.552 20.2902 103.65 19.9498 103.65C19.2491 103.65 18.7913 103.147 18.7819 102.465H21.2786V102.213C21.2786 100.939 20.64 100.104 19.5989 100.104ZM15.865 100.104C15.3357 100.104 14.9495 100.32 14.5633 100.634V98.4432H13.7111V104.305H14.5633V101.396C14.8415 101.145 15.2007 100.912 15.5775 100.912C16.1162 100.912 16.2066 101.387 16.2066 101.864V104.305H17.0588V101.612C17.0588 100.436 16.439 100.104 15.865 100.104ZM9.50544 99.556H10.9422V104.305H11.8213V99.556H13.0515L13.2311 98.7754H9.50544V99.556Z" fill="white"/>
</g>
<defs>
<clipPath id="clip0_11987_7263">
<rect width="133.226" height="35" fill="white" transform="translate(8.38672 58)"/>
</clipPath>
</defs>
</svg>
