<svg width="150" height="150" viewBox="0 0 150 150" fill="none" xmlns="http://www.w3.org/2000/svg">
<rect width="150" height="150" fill="#C7070F"/>
<g clip-path="url(#clip0_11987_7269)">
<path fill-rule="evenodd" clip-rule="evenodd" d="M27.3421 63.4055C25.7195 63.4503 24.1425 63.7658 22.6557 64.4417L24.5931 67.8667C25.4495 67.5064 26.441 67.2811 27.3421 67.2811C27.6577 67.2811 27.9278 67.3258 28.2433 67.3706C31.9383 67.6414 34.9127 71.4722 34.6427 75.1217C34.3271 79.1322 31.1274 81.656 27.3421 81.8366C27.1169 81.8366 26.846 81.8366 26.6207 81.8366C24.1425 81.2957 22.0701 80.2595 20.8533 77.9155L16.7972 70.8858C16.2564 72.5084 16.0766 74.0407 16.2116 75.7081C16.8428 81.0257 20.8981 85.081 26.2157 85.7121C26.576 85.7568 26.9818 85.7568 27.3421 85.7568C33.5162 85.6666 38.4727 80.7548 38.5629 74.6263C38.4727 68.5426 33.831 63.8561 27.9278 63.4055C27.748 63.4055 27.5227 63.4055 27.3421 63.4055ZM27.3421 89.0013C19.4113 89.0013 12.877 82.5124 12.877 74.6263C12.877 70.7508 14.4085 67.2355 16.9323 64.6223L23.8277 76.519C24.1425 77.059 24.5931 77.5552 25.1339 77.961C25.7651 78.3213 26.4857 78.5914 27.2519 78.5914C27.2974 78.5914 27.3421 78.5914 27.3421 78.5914C30.136 78.6816 32.0733 75.6625 31.1274 73.1843C30.5866 71.6072 29.0095 70.571 27.3421 70.571C27.1169 70.571 26.8916 70.571 26.6663 70.6158C25.4495 70.7508 24.2328 71.787 23.6919 72.8687L18.2393 63.4055C20.7175 61.3779 23.9172 60.1611 27.3421 60.1611C35.3185 60.1611 41.8073 66.6499 41.8073 74.6263C41.8073 82.5124 35.3185 89.0013 27.3421 89.0013Z" fill="white"/>
<path fill-rule="evenodd" clip-rule="evenodd" d="M64.1608 76.3381L61.9526 72.5976C61.8624 72.9587 61.8176 73.319 61.8176 73.7248V84.0445H65.7826V79.1775L64.1608 76.3381ZM87.6386 75.5719L89.7566 79.2222V83.9989H89.711V84.0445H85.2499V71.4719L87.6386 75.5719ZM87.6386 73.5898L89.7566 77.1945V74.8513C89.7566 73.1392 92.6406 73.0042 92.6406 74.8513V83.9989H95.2994V84.0445H97.5971V74.8513C97.5971 73.1392 100.482 73.0042 100.482 74.8513V84.0445H104.943V74.626C104.943 69.5337 98.5438 68.5878 96.2006 71.7867C94.7586 69.8046 91.7842 69.3987 89.711 70.5707V69.9396H85.5207L87.6386 73.5898ZM112.514 78.0054L107.647 69.5793C107.647 74.4007 107.647 79.2222 107.647 83.9989H111.613V83.4133C112.514 83.8639 113.55 84.1339 114.676 84.1339C118.507 84.1339 121.661 80.9798 121.661 77.1043C121.661 73.2743 118.507 70.1201 114.676 70.1201C113.55 70.1201 112.514 70.3902 111.613 70.8408V65.0278H107.647C107.647 66.6496 107.647 65.9282 107.647 67.5508L112.604 76.0681C112.964 75.3467 113.775 74.8066 114.676 74.8066C115.939 74.8066 116.975 75.8428 116.975 77.1043C116.975 78.3658 115.939 79.4027 114.676 79.4027C113.685 79.4027 112.874 78.8619 112.514 78.0054ZM128.375 78.1405L125.132 72.5528C124.05 73.7696 123.419 75.3467 123.419 77.1043C123.419 80.9798 126.574 84.1339 130.449 84.1339C134.279 84.1339 137.434 80.9798 137.434 77.1043C137.434 73.2743 134.279 70.1201 130.449 70.1201C128.691 70.1201 127.114 70.7505 125.852 71.8322L128.375 76.1128C128.737 75.3467 129.547 74.8066 130.449 74.8066C131.711 74.8066 132.747 75.8428 132.747 77.1043C132.747 78.3658 131.711 79.4027 130.449 79.4027C129.547 79.4027 128.737 78.9066 128.375 78.1405ZM77.2735 80.3942C77.9949 80.1234 78.4902 79.4475 78.626 78.6813H83.2222C82.5463 81.5207 80.2031 83.6834 77.2735 84.0892C77.0034 84.0892 76.6879 84.1339 76.3723 84.1339C72.5423 84.1339 69.3882 80.9798 69.3882 77.1043C69.3882 75.5719 69.8835 74.2202 70.6952 73.049L74.2999 79.2222C74.6602 80.0331 75.4264 80.574 76.3723 80.574C76.6879 80.574 77.0034 80.5292 77.2735 80.3942ZM77.2735 75.8875H78.6708C78.5805 75.0319 78.0396 74.3552 77.2735 74.0404C77.0034 73.9046 76.6879 73.8599 76.3723 73.8599C75.1563 73.8599 74.2096 74.7163 74.1193 75.8875H77.2735ZM77.2735 70.1649C77.0034 70.1649 76.6879 70.1201 76.3723 70.1201C74.4805 70.1201 72.6773 70.931 71.4158 72.2373L74.7505 78.0054V77.6899H83.3572C83.3572 77.4646 83.4028 77.2848 83.4028 77.1043C83.4028 73.5898 80.6984 70.6155 77.2735 70.1649ZM64.1608 74.3552L62.4935 71.5166C62.9441 70.9758 63.5297 70.6155 64.1608 70.4349C64.5211 70.2999 64.9262 70.2551 65.2873 70.2551H68.487V73.9501H67.585C66.5488 73.9501 65.7826 74.6708 65.7826 75.7525V77.1498L64.1608 74.3552ZM50.3715 78.0054L45.459 69.5793C45.459 74.4007 45.459 79.2222 45.459 83.9989H49.4248V83.4133C50.3715 83.8639 51.4077 84.1339 52.4887 84.1339C56.3195 84.1339 59.5191 80.9798 59.5191 77.1043C59.5191 73.2743 56.3195 70.1201 52.4887 70.1201C51.4077 70.1201 50.3715 70.3902 49.4248 70.8408V65.0278H45.459C45.459 66.6496 45.459 65.9282 45.459 67.5508L50.4163 76.0681C50.7766 75.3467 51.5875 74.8066 52.4887 74.8066C53.7509 74.8066 54.7871 75.8428 54.7871 77.1043C54.7871 78.3658 53.7509 79.4027 52.4887 79.4027C51.5427 79.4027 50.7318 78.8619 50.3715 78.0054Z" fill="white"/>
</g>
<defs>
<clipPath id="clip0_11987_7269">
<rect width="124.878" height="29.1625" fill="white" transform="translate(12.7188 60)"/>
</clipPath>
</defs>
</svg>
