<svg width="28" height="28" viewBox="0 0 28 28" fill="none" xmlns="http://www.w3.org/2000/svg">
<path fill-rule="evenodd" clip-rule="evenodd" d="M0.948058 19.4154C1.67402 16.0958 4.62808 13.6104 8.16689 13.6104C11.7057 13.6104 14.6598 16.0958 15.3857 19.4154C15.7018 20.8622 14.7483 22.164 13.4805 22.547C12.1178 22.9586 10.3073 23.3341 8.16689 23.3341C6.0272 23.3341 4.21637 22.9603 2.85207 22.5465C1.5882 22.1637 0.632097 20.8647 0.948058 19.4154Z" fill="#036AA2"/>
<path d="M16.6842 23.0616C17.6266 23.226 18.6822 23.3341 19.8331 23.3341C21.9734 23.3341 23.7841 22.9586 25.1466 22.547C26.4145 22.164 27.3679 20.8622 27.0518 19.4154C26.326 16.0958 23.3718 13.6104 19.8331 13.6104C18.3057 13.6104 16.8874 14.0733 15.71 14.8665C16.6526 16.0253 17.334 17.4056 17.6644 18.9168C18.0137 20.5159 17.5589 21.9756 16.6842 23.0616Z" fill="#036AA2"/>
<path d="M8.1665 11.2786C10.0995 11.2786 11.6665 9.71231 11.6665 7.77856C11.6665 5.84481 10.0995 4.27856 8.1665 4.27856C6.23346 4.27856 4.6665 5.84481 4.6665 7.77856C4.6665 9.71231 6.23346 11.2786 8.1665 11.2786Z" fill="#036AA2"/>
<path d="M19.8335 11.2786C21.7666 11.2786 23.3335 9.71231 23.3335 7.77856C23.3335 5.84481 21.7666 4.27856 19.8335 4.27856C17.9004 4.27856 16.3335 5.84481 16.3335 7.77856C16.3335 9.71231 17.9004 11.2786 19.8335 11.2786Z" fill="#036AA2"/>
</svg>
