<svg width="28" height="28" viewBox="0 0 28 28" fill="none" xmlns="http://www.w3.org/2000/svg">
<path d="M9.72244 15.5557H5.83355C4.33011 15.5557 3.11133 16.7744 3.11133 18.2779V22.1668C3.11133 23.6702 4.33011 24.889 5.83355 24.889H9.72244C11.2259 24.889 12.4447 23.6702 12.4447 22.1668V18.2779C12.4447 16.7744 11.2259 15.5557 9.72244 15.5557Z" fill="#036AA2"/>
<path d="M22.1668 15.5557H18.2779C16.7744 15.5557 15.5557 16.7744 15.5557 18.2779V22.1668C15.5557 23.6702 16.7744 24.889 18.2779 24.889H22.1668C23.6702 24.889 24.889 23.6702 24.889 22.1668V18.2779C24.889 16.7744 23.6702 15.5557 22.1668 15.5557Z" fill="#036AA2"/>
<path d="M24.8965 5.85356L22.1447 3.10178C21.0854 2.044 19.3587 2.04244 18.2963 3.10178L15.5445 5.85356C14.4852 6.91444 14.4852 8.64111 15.5445 9.702L18.2963 12.4538C18.8267 12.9827 19.5236 13.2487 20.2205 13.2487C20.9174 13.2487 21.6143 12.9842 22.1447 12.4538L24.8965 9.702C25.9558 8.64111 25.9558 6.91444 24.8965 5.85356Z" fill="#036AA2"/>
<path d="M9.72244 3.11108H5.83355C4.33011 3.11108 3.11133 4.32986 3.11133 5.83331V9.7222C3.11133 11.2256 4.33011 12.4444 5.83355 12.4444H9.72244C11.2259 12.4444 12.4447 11.2256 12.4447 9.7222V5.83331C12.4447 4.32986 11.2259 3.11108 9.72244 3.11108Z" fill="#036AA2"/>
</svg>
