<svg width="150" height="150" viewBox="0 0 150 150" fill="none" xmlns="http://www.w3.org/2000/svg">
<rect width="150" height="150" fill="#082141"/>
<g clip-path="url(#clip0_11987_7340)">
<path d="M28.4864 55.0392C25.4206 55.2259 22.8809 55.8877 20.3128 57.1717C15.4313 59.6152 11.749 63.8745 10.0295 69.0615C8.82465 72.6872 8.68324 76.7259 9.62786 80.4818C11.0929 86.3022 15.092 91.2233 20.5108 93.8536C22.615 94.8774 24.6739 95.477 27.1571 95.7937C28.0452 95.9069 122.015 95.9012 122.977 95.7937C127.627 95.2507 131.897 93.1974 135.167 89.928C138.549 86.5455 140.648 82.0486 141.077 77.2859C141.213 75.7191 141.123 73.53 140.851 71.9236C139.997 66.946 137.192 62.319 133.153 59.2419C130.172 56.968 126.869 55.6275 123.005 55.1297C122.247 55.0335 120.154 55.0279 75.4912 55.0222C49.7941 55.0222 28.6448 55.0279 28.4864 55.0392ZM122.632 59.8811C126.212 60.4354 129.075 61.8043 131.507 64.1347C134.148 66.6631 135.721 69.7459 136.281 73.4678C136.383 74.1579 136.383 76.9069 136.281 77.597C135.653 81.7828 133.651 85.3011 130.426 87.8747C128.198 89.6509 125.664 90.7199 122.581 91.1837C121.97 91.2742 119.153 91.2856 75.7458 91.3025C44.2678 91.3138 29.2613 91.3025 28.6278 91.2573C26.3822 91.1215 24.4364 90.5955 22.4623 89.6113C15.7425 86.2457 12.3486 78.6435 14.317 71.3919C15.6972 66.3294 19.4757 62.319 24.4986 60.5881C25.5959 60.2148 27.0949 59.9037 28.2601 59.8132C28.6052 59.7906 49.8281 59.768 75.4347 59.7736C119.51 59.7793 122.021 59.7849 122.632 59.8811Z" fill="white"/>
<path d="M122.871 66.0638C122.062 66.2335 121.338 66.7878 121.146 67.3761C120.925 68.0379 121.106 68.8015 121.593 69.2483C122.158 69.7687 122.718 69.961 123.657 69.9497C124.834 69.9441 125.614 69.5425 126.044 68.7279C126.152 68.53 126.174 68.3999 126.174 67.9813C126.174 67.5231 126.157 67.4439 126.005 67.1668C125.496 66.2448 124.178 65.7753 122.871 66.0638Z" fill="white"/>
<path d="M23.3105 67.6073V69.1233L23.5594 69.3721C23.7122 69.5305 23.8366 69.7172 23.8818 69.8756C23.995 70.2489 23.995 79.5141 23.8818 79.8874C23.8366 80.0458 23.7122 80.2325 23.5594 80.3909L23.3105 80.6397V82.1896V83.7451L27.5698 83.7168C32.1459 83.6942 32.423 83.6772 33.6618 83.3718C34.7196 83.1116 35.585 82.6251 36.0092 82.0538C36.4787 81.4147 36.8464 80.3909 37.0047 79.2369C37.0387 78.9824 37.0783 77.4382 37.0953 75.7017C37.1348 71.5272 37.05 70.181 36.6597 69.0271C36.0432 67.1944 34.7196 66.4025 31.8517 66.1423C31.4841 66.114 29.4874 66.0858 27.2587 66.0858H23.3105V67.6073ZM31.0485 70.0962C31.2352 70.1923 31.3257 70.2885 31.4162 70.4865C31.5406 70.7523 31.5406 70.7862 31.5576 74.7062C31.5746 79.0503 31.5633 79.1691 31.2409 79.5141C31.0033 79.763 30.7544 79.8422 30.0869 79.8761L29.476 79.9044V74.9098V69.9208L30.1435 69.9434C30.6865 69.9661 30.8506 69.9887 31.0485 70.0962Z" fill="white"/>
<path d="M51.7051 67.6136V69.1408L51.9313 69.3444C52.3443 69.7178 52.3329 69.5198 52.316 75.0291C52.299 80.4706 52.3273 80.0747 51.9087 80.4423L51.7051 80.6177V82.1789V83.7344H58.0968H64.4886V79.4355V75.1366H62.0846H59.6806V76.7034C59.675 79.0056 59.6014 79.4242 59.1263 79.7013C58.9114 79.8258 58.7813 79.8597 58.3683 79.8767L57.8649 79.8993L57.8819 74.9895C57.8989 71.228 57.9215 70.0232 57.9724 69.8648C58.0686 69.582 58.3005 69.3105 58.5324 69.22L58.719 69.1408V67.6136V66.0863H55.2121H51.7051V67.6136Z" fill="white"/>
<path d="M106.404 67.54L106.41 68.9994L106.585 69.1125C106.687 69.1747 106.817 69.3162 106.885 69.4236C106.998 69.6216 106.998 69.6838 106.998 74.7972C106.998 79.6618 106.993 79.9898 106.896 80.2387C106.84 80.3858 106.704 80.5837 106.597 80.6743L106.404 80.8439V82.292V83.7344H109.43H112.457V82.275V80.8213L112.264 80.6347C111.908 80.2896 111.891 80.1482 111.891 77.0202V74.2429L112.095 74.175C112.208 74.1354 112.445 74.1071 112.626 74.1015C113.085 74.1015 113.35 74.2429 113.531 74.6049L113.673 74.8821L113.707 78.3891C113.741 81.551 113.792 82.7162 113.922 83.4742L113.961 83.7061L116.546 83.7231L119.131 83.7344V82.292V80.8439L118.911 80.6347C118.583 80.3179 118.566 80.1312 118.566 76.941C118.566 75.3968 118.537 73.9884 118.509 73.7225C118.334 72.2971 117.853 71.443 116.982 71.0187C116.365 70.7189 115.981 70.6454 115.03 70.6454C113.905 70.6398 113.232 70.7925 112.332 71.2393L111.891 71.4599V68.7731V66.0863H109.148H106.404V67.54Z" fill="white"/>
<path d="M39.3184 68.4057V69.0845H44.5506H49.7827V68.4057V67.7269H44.5506H39.3184V68.4057Z" fill="white"/>
<path d="M43.3628 70.5889C43.2723 70.6002 42.9895 70.6398 42.7406 70.6737C41.0719 70.8886 40.0651 71.4826 39.5504 72.5403C39.0978 73.4793 39.0809 73.649 39.0526 76.8618C39.0187 80.431 39.0809 81.0419 39.5786 81.9809C39.9576 82.7049 40.461 83.1461 41.2473 83.4516C42.7689 84.0342 45.5858 84.0964 47.7635 83.593C48.6572 83.3837 49.698 82.9312 50.2636 82.5013L50.5464 82.2863L50.5634 80.6912L50.5747 79.0961H48.1481H45.7215L45.6989 79.6731C45.6649 80.6177 45.433 80.9345 44.7769 80.9345C44.3527 80.9345 44.1603 80.8213 43.9906 80.4763C43.8945 80.2896 43.8775 80.103 43.8549 79.2206L43.8323 78.1911H47.2092H50.5917L50.5578 76.3923C50.5351 75.1536 50.5012 74.4409 50.439 74.0902C50.1392 72.348 49.4038 71.4203 47.9445 70.9509C47.0281 70.6624 46.553 70.6002 44.9749 70.5832C44.183 70.5719 43.4589 70.5775 43.3628 70.5889ZM45.2577 73.6377C45.5575 73.796 45.6763 74.1128 45.6989 74.8651L45.7215 75.5326H44.7769H43.8266L43.8549 74.9217C43.8832 74.1977 44.0133 73.847 44.3074 73.6659C44.5337 73.5302 45.0201 73.5132 45.2577 73.6377Z" fill="white"/>
<path d="M70.4004 70.5887C70.3099 70.6 70.0271 70.6396 69.7782 70.6736C67.889 70.9168 66.8256 71.6408 66.39 72.9757C66.1016 73.8638 66.1016 73.8808 66.1016 77.2859C66.1016 80.4535 66.1016 80.4875 66.2373 81.0079C66.7351 82.9989 67.889 83.7173 70.8869 83.9096C71.9107 83.9718 73.3361 83.9096 74.1789 83.7625C75.9381 83.4514 76.8205 82.7896 77.2673 81.4377C77.5445 80.6006 77.5671 80.2103 77.5445 76.9183L77.5219 73.9204L77.3748 73.366C76.9336 71.7596 76.0399 71.0356 74.0488 70.6905C73.5341 70.6057 70.8473 70.5265 70.4004 70.5887ZM72.4085 73.7507C72.7422 74.0731 72.7535 74.1919 72.7365 77.3821L72.7196 80.2556L72.5782 80.5101C72.2275 81.138 71.3451 81.121 71.0227 80.4818C70.9152 80.2669 70.9095 80.1255 70.8926 77.4273C70.8699 74.3842 70.8869 74.141 71.1471 73.8299C71.3451 73.5923 71.4695 73.5527 71.8824 73.5697C72.1879 73.5866 72.2614 73.6093 72.4085 73.7507Z" fill="white"/>
<path d="M86.6331 70.668C85.8525 70.7925 85.0154 71.0979 84.3875 71.4939L84.1726 71.6296V71.2054V70.7812H81.5423H78.9121V72.2349L78.9178 73.6942L79.0931 73.8074C79.1893 73.8696 79.325 74.0223 79.3872 74.1467C79.5004 74.3673 79.506 74.4465 79.506 77.1446C79.506 79.69 79.4947 79.9389 79.4042 80.2161C79.3363 80.4084 79.2289 80.5668 79.1044 80.6686L78.9121 80.8213V82.275V83.7344H81.9383H84.9645V82.2694V80.8043L84.8231 80.7138C84.6251 80.5837 84.4667 80.2387 84.3988 79.7918C84.3706 79.5826 84.3423 78.2476 84.3423 76.8279V74.2486L84.6081 74.1694C84.9532 74.0732 85.417 74.0845 85.6206 74.192C85.8356 74.3051 85.9544 74.4409 86.0788 74.7124C86.1693 74.916 86.1806 75.2837 86.2146 78.6436C86.2372 80.6799 86.2711 82.4391 86.2881 82.5465C86.3051 82.654 86.3503 82.9651 86.3842 83.2366L86.4465 83.7344H89.0428H91.6391V82.2863V80.8439L91.4694 80.6969C91.0904 80.3801 91.1074 80.5272 91.0678 76.975C91.0451 74.9047 91.0112 73.6263 90.9659 73.3944C90.6096 71.4599 89.7046 70.702 87.6796 70.6398C87.2893 70.6284 86.8198 70.6398 86.6331 70.668Z" fill="white"/>
<path d="M95.8828 70.6509C95.4359 70.7018 94.9381 70.8489 94.5705 71.0468C93.7277 71.488 93.2921 72.2856 93.1111 73.7223C93.0376 74.3049 93.0376 79.4749 93.1168 80.1593C93.326 82.1278 93.9539 83.0498 95.3341 83.4344C95.4981 83.474 95.9223 83.5306 96.2787 83.5475C97.2969 83.5984 98.2754 83.4288 99.2653 83.0271L99.7291 82.8405V83.5249C99.7291 84.792 99.5707 85.301 99.1295 85.499C98.4847 85.7818 97.9756 85.3633 97.8795 84.4639L97.8455 84.1302H95.5943H93.3374V85.7366V87.3373L93.8634 87.5693C95.4755 88.2707 96.8896 88.5818 98.7449 88.6383C100.408 88.6892 101.381 88.5195 102.359 88.0218C103.264 87.5523 104.096 86.5172 104.379 85.516C104.503 85.0691 104.503 85.0126 104.537 79.7747C104.565 75.5494 104.588 74.4464 104.645 74.288C104.735 74.0617 104.961 73.7959 105.114 73.745C105.21 73.7167 105.216 73.6205 105.216 72.246V70.781H102.586H99.9554V71.1769C99.9554 71.4089 99.9327 71.5729 99.8988 71.5729C99.8649 71.5729 99.7348 71.505 99.6047 71.4202C98.6487 70.8206 97.1385 70.5095 95.8828 70.6509ZM99.4802 74.1805L99.7291 74.2427V77.0596V79.8765L99.4633 79.984C99.1013 80.1197 98.6205 80.1141 98.3716 79.967C97.9304 79.7125 97.8625 79.3335 97.8625 77.1162C97.8625 74.8819 97.9417 74.4973 98.4281 74.2427C98.7053 74.1013 99.0786 74.0787 99.4802 74.1805Z" fill="white"/>
<path d="M120.771 72.2349L120.777 73.6942L120.952 73.8074C121.054 73.8696 121.184 74.011 121.252 74.1185C121.36 74.3108 121.365 74.3956 121.365 77.1446C121.365 80.3066 121.365 80.3292 120.964 80.6743L120.771 80.8439V82.292V83.7344H123.798H126.824V82.2863V80.8326L126.632 80.6177C126.524 80.5046 126.405 80.3066 126.36 80.1878C126.309 80.0238 126.286 78.9321 126.27 75.3742L126.253 70.7812H123.515H120.771V72.2349Z" fill="white"/>
</g>
<defs>
<clipPath id="clip0_11987_7340">
<rect width="132.191" height="40.9525" fill="white" transform="translate(9 55)"/>
</clipPath>
</defs>
</svg>
