<svg width="28" height="28" viewBox="0 0 28 28" fill="none" xmlns="http://www.w3.org/2000/svg">
<g clip-path="url(#clip0_12087_5213)">
<path d="M14 21.0023C10.1407 21.0023 7 17.8617 7 14.0023C7 10.143 10.1407 7.00233 14 7.00233C17.8593 7.00233 21 10.143 21 14.0023C21 17.8617 17.8593 21.0023 14 21.0023ZM14 10.5023C12.0703 10.5023 10.5 12.0727 10.5 14.0023C10.5 15.932 12.0703 17.5023 14 17.5023C15.9297 17.5023 17.5 15.932 17.5 14.0023C17.5 12.0727 15.9297 10.5023 14 10.5023Z" fill="#CCD1DF"/>
<path d="M14 28.0023C6.279 28.0023 0 21.7233 0 14.0023C0 6.28133 6.279 0.00233459 14 0.00233459C21.721 0.00233459 28 6.28133 28 14.0023C28 18.0577 25.6107 21.0023 22.3183 21.0023C19.6163 21.0023 17.5 18.697 17.5 15.7523V8.75233C17.5 7.78633 18.284 7.00233 19.25 7.00233C20.216 7.00233 21 7.78633 21 8.75233V15.7523C21 16.7323 21.5787 17.5023 22.3183 17.5023C23.583 17.5023 24.5 16.03 24.5 14.0023C24.5 8.21333 19.789 3.50233 14 3.50233C8.211 3.50233 3.5 8.21333 3.5 14.0023C3.5 19.7913 8.211 24.5023 14 24.5023C15.386 24.5023 16.7323 24.2363 17.9993 23.7137C18.9 23.3497 19.915 23.772 20.2837 24.6633C20.6523 25.557 20.2277 26.579 19.334 26.9477C17.6423 27.6453 15.8457 28 14 28V28.0023Z" fill="#CCD1DF"/>
</g>
<defs>
<clipPath id="clip0_12087_5213">
<rect width="28" height="28" fill="white"/>
</clipPath>
</defs>
</svg>
