<svg width="32" height="32" viewBox="0 0 32 32" fill="none" xmlns="http://www.w3.org/2000/svg">
<path d="M25.3329 7.11111H6.66623C3.96934 7.11111 1.77734 9.30311 1.77734 12V23.5556C1.77734 26.2524 3.96934 28.4444 6.66623 28.4444H25.3329C28.0298 28.4444 30.2218 26.2524 30.2218 23.5556V12C30.2218 9.30311 28.0298 7.11111 25.3329 7.11111ZM7.11068 19.5556C6.12934 19.5556 5.3329 18.7591 5.3329 17.7778C5.3329 16.7964 6.12934 16 7.11068 16C8.09201 16 8.88845 16.7964 8.88845 17.7778C8.88845 18.7591 8.09201 19.5556 7.11068 19.5556ZM15.9996 21.7778C13.7898 21.7778 11.9996 19.9876 11.9996 17.7778C11.9996 15.568 13.7898 13.7778 15.9996 13.7778C18.2093 13.7778 19.9996 15.568 19.9996 17.7778C19.9996 19.9876 18.2093 21.7778 15.9996 21.7778ZM24.8885 19.5556C23.9071 19.5556 23.1107 18.7591 23.1107 17.7778C23.1107 16.7964 23.9071 16 24.8885 16C25.8698 16 26.6662 16.7964 26.6662 17.7778C26.6662 18.7591 25.8698 19.5556 24.8885 19.5556Z" fill="#CCD1DF"/>
<path d="M25.333 4.44445H6.66634C5.93034 4.44445 5.33301 3.84711 5.33301 3.11111C5.33301 2.37511 5.93034 1.77778 6.66634 1.77778H25.333C26.069 1.77778 26.6663 2.37511 26.6663 3.11111C26.6663 3.84711 26.069 4.44445 25.333 4.44445Z" fill="#CCD1DF"/>
</svg>
