<svg width="32" height="32" viewBox="0 0 32 32" fill="none" xmlns="http://www.w3.org/2000/svg">
<path d="M23.5557 3.55556H8.44455C5.74838 3.55556 3.55566 5.74827 3.55566 8.44445V23.5556C3.55566 26.2517 5.74838 28.4444 8.44455 28.4444H23.5557C26.2518 28.4444 28.4446 26.2517 28.4446 23.5556V8.44445C28.4446 5.74827 26.2518 3.55556 23.5557 3.55556ZM8.44455 6.22222H23.5557C24.7814 6.22222 25.7779 7.21867 25.7779 8.44445V16H21.7779C21.0417 16 20.4446 16.5972 20.4446 17.3333V20C20.4446 20.2448 20.2449 20.4444 20.0001 20.4444H12.0001C11.7553 20.4444 11.5557 20.2448 11.5557 20V17.3333C11.5557 16.5972 10.9585 16 10.2223 16H6.22233V8.44445C6.22233 7.21867 7.21878 6.22222 8.44455 6.22222Z" fill="#CCD1DF"/>
<path d="M10.222 12.4444H21.7776C22.5137 12.4444 23.1109 11.8473 23.1109 11.1111C23.1109 10.3749 22.5137 9.77778 21.7776 9.77778H10.222C9.48583 9.77778 8.88867 10.3749 8.88867 11.1111C8.88867 11.8473 9.48583 12.4444 10.222 12.4444Z" fill="#CCD1DF"/>
</svg>
