<svg width="32" height="32" viewBox="0 0 32 32" fill="none" xmlns="http://www.w3.org/2000/svg">
<path d="M20.8885 9.77778C20.1525 9.77778 19.5551 9.18045 19.5551 8.44445V4C19.5551 3.75467 19.356 3.55556 19.1107 3.55556H12.8885C12.6431 3.55556 12.444 3.75467 12.444 4V8.44445C12.444 9.18045 11.8467 9.77778 11.1107 9.77778C10.3747 9.77778 9.77734 9.18045 9.77734 8.44445V4C9.77734 2.28445 11.1729 0.888889 12.8885 0.888889H19.1107C20.8262 0.888889 22.2218 2.28445 22.2218 4V8.44445C22.2218 9.18045 21.6245 9.77778 20.8885 9.77778Z" fill="#CCD1DF"/>
<path d="M25.3329 7.11111H6.66623C3.96617 7.11111 1.77734 9.29994 1.77734 12V23.5556C1.77734 26.2556 3.96617 28.4444 6.66623 28.4444H25.3329C28.033 28.4444 30.2218 26.2556 30.2218 23.5556V12C30.2218 9.29994 28.033 7.11111 25.3329 7.11111Z" fill="#CCD1DF"/>
</svg>
