<svg width="32" height="32" viewBox="0 0 32 32" fill="none" xmlns="http://www.w3.org/2000/svg">
<g clip-path="url(#clip0_12087_5201)">
<rect x="2.87207" y="3" width="26.2562" height="26.2562" rx="5.25123" fill="white"/>
<path d="M2.84354 2.8949L29.129 2.89579L29.1275 32.5479L14.8507 32.5456C15.1408 30.0409 15.8441 27.2833 17.5167 25.318C18.505 25.3427 21.5548 25.6603 22.2594 25.0975C22.4336 24.9585 22.5343 24.7505 22.5956 24.5413C22.7472 24.0237 22.7896 23.4188 22.8574 22.882C22.9978 21.6972 23.1317 20.5113 23.2587 19.325C23.78 18.9753 24.3315 18.8195 24.8036 18.3317C24.3827 17.6787 23.9787 17.0151 23.5919 16.3415C23.0123 15.2867 22.4821 14.1614 22.6246 12.9229C22.6433 12.6189 22.8577 12.1876 22.8568 11.8958C22.8521 10.0957 21.7577 8.00865 20.6476 6.68278C20.0748 9.007 19.1214 10.8358 17.9858 12.924C18.5838 12.6273 19.8766 12.0231 20.525 11.8835C20.6636 11.8536 21.9508 12.0774 22.2099 12.1152C22.0284 12.4344 21.8756 12.7111 21.7129 13.0404L20.477 12.5771C19.6101 12.6941 18.7864 12.8515 17.9275 13.0136C16.6293 15.3539 15.0833 17.5072 13.6309 19.744C11.1125 23.6224 8.19855 28.0086 7.11814 32.5473L2.83774 32.5491L2.83599 12.3241C2.83629 9.21208 2.79595 6.00139 2.84354 2.8949Z" fill="#CCD1DF"/>
<path d="M10.2982 8.14078C10.4153 8.2801 10.5516 9.15969 10.5814 9.38184C10.6707 10.0478 10.6254 10.7365 10.5709 11.4039C11.4657 11.209 12.0085 11.0961 12.943 11.0872C11.9269 12.8598 10.7496 13.9246 8.86038 14.7214C7.99459 15.0462 7.42216 15.1409 6.52861 15.2496C6.49789 14.3241 6.55266 13.5513 6.80334 12.6499C7.31905 10.7403 8.57757 9.11653 10.2982 8.14078Z" fill="white"/>
<path d="M5.40171 13.1557C5.51882 13.295 5.65509 14.1746 5.68489 14.3968C5.77425 15.0627 5.7289 15.7515 5.67439 16.4188C6.56918 16.224 7.11206 16.111 8.04654 16.1021C7.03043 17.8747 5.85311 18.9396 3.96389 19.7364C3.0981 20.0612 2.52567 20.1558 1.63212 20.2645C1.60141 19.339 1.65617 18.5663 1.90686 17.6649C2.42257 15.7552 3.68109 14.1315 5.40171 13.1557Z" fill="white"/>
<path d="M16.4821 2.03586C16.5454 2.01468 16.5099 2.01898 16.5902 2.03448C16.7248 2.24636 16.7783 2.59135 16.8235 2.84074C17.4592 6.33858 15.4937 9.46496 11.9792 10.0959C11.8593 10.1175 11.8275 10.13 11.705 10.108C11.6022 9.941 11.5906 9.54685 11.582 9.3503C11.5281 8.23231 11.7331 7.11682 12.1811 6.09051C13.0061 4.17898 14.5594 2.79689 16.4821 2.03586Z" fill="white"/>
<path d="M21.1598 14.2271C21.2242 14.317 21.0001 14.9704 20.9966 15.1116C20.9907 15.3686 21.1858 15.8317 21.2764 16.0778C20.2899 15.9466 19.9094 15.9084 18.9935 15.5166C18.6295 15.3429 18.4303 15.208 18.1035 14.9686C19.0705 14.7742 20.2017 14.477 21.1598 14.2271Z" fill="#CCD1DF"/>
</g>
<defs>
<clipPath id="clip0_12087_5201">
<rect x="2.87207" y="3" width="26.2562" height="26.2562" rx="5.25123" fill="white"/>
</clipPath>
</defs>
</svg>
