<svg width="32" height="32" viewBox="0 0 32 32" fill="none" xmlns="http://www.w3.org/2000/svg">
<path d="M26.281 5.00089L16.9477 2.01422C16.3272 1.81511 15.6712 1.81689 15.0526 2.01422L5.71744 5.00089C4.42322 5.41511 3.55566 6.60622 3.55566 7.96444V19.5556C3.55566 25.792 12.3486 29.1182 15.0401 29.9893C15.3548 30.0907 15.6766 30.1422 16.0001 30.1422C16.3237 30.1422 16.6437 30.0924 16.9566 29.9911C19.6517 29.12 28.4446 25.7938 28.4446 19.5573V7.96444C28.4446 6.60622 27.5752 5.41511 26.281 5.00089ZM21.5148 12.8036L15.4757 20.8036C15.2481 21.104 14.9032 21.2942 14.5263 21.328C14.489 21.3316 14.4499 21.3333 14.4108 21.3333C14.0748 21.3333 13.7494 21.2071 13.5023 20.976L10.6419 18.3093C10.1032 17.8062 10.073 16.9636 10.5743 16.4249C11.0792 15.8862 11.9219 15.8578 12.4588 16.3573L14.2383 18.016L19.3868 11.1964C19.8312 10.6098 20.6668 10.4924 21.2552 10.9369C21.8437 11.3813 21.9592 12.2151 21.5148 12.8036Z" fill="#CCD1DF"/>
</svg>
