<svg width="32" height="32" viewBox="0 0 32 32" fill="none" xmlns="http://www.w3.org/2000/svg">
<path d="M11.1112 17.7778H6.66678C4.94856 17.7778 3.55566 19.1707 3.55566 20.8889V25.3333C3.55566 27.0516 4.94856 28.4444 6.66678 28.4444H11.1112C12.8294 28.4444 14.2223 27.0516 14.2223 25.3333V20.8889C14.2223 19.1707 12.8294 17.7778 11.1112 17.7778Z" fill="#CCD1DF"/>
<path d="M25.3329 17.7778H20.8885C19.1702 17.7778 17.7773 19.1707 17.7773 20.8889V25.3333C17.7773 27.0516 19.1702 28.4444 20.8885 28.4444H25.3329C27.0511 28.4444 28.444 27.0516 28.444 25.3333V20.8889C28.444 19.1707 27.0511 17.7778 25.3329 17.7778Z" fill="#CCD1DF"/>
<path d="M28.4534 6.68978L25.3085 3.54489C24.0979 2.336 22.1245 2.33422 20.9103 3.54489L17.7654 6.68978C16.5548 7.90222 16.5548 9.87555 17.7654 11.088L20.9103 14.2329C21.5165 14.8373 22.313 15.1413 23.1094 15.1413C23.9059 15.1413 24.7023 14.8391 25.3085 14.2329L28.4534 11.088C29.6641 9.87555 29.6641 7.90222 28.4534 6.68978Z" fill="#CCD1DF"/>
<path d="M11.1112 3.55556H6.66678C4.94856 3.55556 3.55566 4.94845 3.55566 6.66667V11.1111C3.55566 12.8293 4.94856 14.2222 6.66678 14.2222H11.1112C12.8294 14.2222 14.2223 12.8293 14.2223 11.1111V6.66667C14.2223 4.94845 12.8294 3.55556 11.1112 3.55556Z" fill="#CCD1DF"/>
</svg>
