<svg width="32" height="32" viewBox="0 0 32 32" fill="none" xmlns="http://www.w3.org/2000/svg">
<path d="M15.2549 24.2418C15.2549 19.2859 19.2876 15.2549 24.2418 15.2549C26.0376 15.2549 27.7075 15.7892 29.1127 16.701C29.1226 16.4918 29.1438 16.2843 29.1438 16.0719C29.1438 8.86438 23.2794 3 16.0719 3C8.86438 3 3 8.86438 3 16.0719C3 18.3546 3.60621 20.6111 4.73529 22.5605C5.12418 23.2892 4.58007 25.8317 3.35948 27.0523C3.01797 27.3938 2.9085 27.9052 3.0817 28.3562C3.25327 28.8072 3.67647 29.116 4.1585 29.1422C4.28758 29.1487 4.41993 29.152 4.55392 29.152C6.42484 29.152 8.69444 28.4869 10.1748 27.7288C11.2778 28.2892 12.4461 28.6879 13.6569 28.9167C14.4477 29.067 15.2598 29.1422 16.0719 29.1422C16.2843 29.1422 16.4902 29.1209 16.6993 29.1095C15.7892 27.7043 15.2549 26.0343 15.2549 24.2402V24.2418Z" fill="#CCD1DF"/>
<path d="M24.241 17.7059C20.6365 17.7059 17.7051 20.6373 17.7051 24.2418C17.7051 27.8464 20.6365 30.7778 24.241 30.7778C27.8456 30.7778 30.777 27.8464 30.777 24.2418C30.777 20.6373 27.8456 17.7059 24.241 17.7059ZM28.0188 25.7941C27.8244 26.268 27.3685 26.5539 26.8865 26.5539C26.7296 26.5539 26.5744 26.5245 26.4208 26.4624L23.7753 25.3758C23.3162 25.1863 23.0155 24.7386 23.0155 24.2418V21.3824C23.0155 20.7059 23.5646 20.1569 24.241 20.1569C24.9175 20.1569 25.4665 20.7059 25.4665 21.3824V23.4199L27.3521 24.1944C27.978 24.451 28.277 25.1683 28.0188 25.7941Z" fill="#CCD1DF"/>
</svg>
