<svg width="150" height="150" viewBox="0 0 150 150" fill="none" xmlns="http://www.w3.org/2000/svg">
<rect width="150" height="150" fill="#E41525"/>
<g clip-path="url(#clip0_11987_7353)">
<path d="M110.813 74.8162C111.807 74.13 122.944 65.9756 131.089 60.0075C131.039 60.0075 104.228 60 104.149 60C102.852 60 101.601 60.4819 100.643 61.3538C99.6848 62.2237 99.0905 63.4181 98.9761 64.7025L97.913 76.4944H105.951C107.714 76.4794 109.424 75.8888 110.815 74.8144M113.232 78.1725C111.257 79.7175 108.794 80.5163 106.281 80.4225H97.5661L97.2661 84.2606C97.2417 84.4444 97.2305 84.63 97.2305 84.8175C97.2305 86.1638 97.7573 87.4556 98.7005 88.4231C99.6436 89.3906 100.928 89.9531 102.282 89.9944H126.449C127.737 89.9906 128.978 89.5125 129.932 88.6537C130.887 87.7931 131.487 86.6138 131.614 85.3406L133.559 63.3431C125.562 69.1894 114.222 77.4712 113.23 78.1744" fill="white"/>
<path d="M41.7081 89.9979H45.0925C46.8981 86.891 48.7338 83.6454 50.5806 80.471H39.5313C40.2794 83.6229 41.0237 86.7785 41.7081 89.9979ZM54.3494 89.9979H62.2769C62.3313 86.8329 62.3762 83.6566 62.4119 80.471H54.7075C54.5988 83.6585 54.5013 86.8535 54.3494 89.9979ZM28.7519 89.9997C29.7925 89.9997 30.8087 89.6772 31.6562 89.0772C32.5037 88.4772 33.1431 87.6297 33.4825 86.651C33.985 85.0385 34.9019 82.0741 35.3987 80.4691H27.7319C26.6538 83.6454 25.5831 86.8197 24.5163 89.996H28.7594M23.9819 86.0922C24.1881 84.8585 24.7244 81.701 24.9325 80.4691H17.005C16.4763 83.6397 15.955 86.816 15.4375 89.996H19.1444M19.7294 64.181C19.9319 63.0204 20.5375 61.9685 21.4412 61.2072C22.345 60.4441 23.4888 60.0222 24.6738 60.011H28.285C27.4638 65.561 26.545 71.0154 25.6244 76.4641V76.4847H17.6856C18.2819 72.9222 18.8763 69.3579 19.4688 65.7916L19.7444 64.1866M23.9819 86.0922C23.7438 87.2022 23.1306 88.1979 22.24 88.9104C21.3494 89.6229 20.2375 90.0072 19.0956 89.9997M90.9362 80.471H66.6981C64.9581 83.6397 63.2275 86.816 61.5044 89.9979H66.9775C67.0619 89.9979 67.255 89.9866 67.2625 89.9866C68.1062 89.9379 68.9237 89.6772 69.6381 89.2291C70.3525 88.781 70.9412 88.1604 71.35 87.4254L71.3556 87.4179C71.7269 86.7654 72.4337 85.511 72.8087 84.8622H83.4062C83.7456 86.5929 84.1206 88.286 84.4787 89.9941H92.9387C92.2675 86.8197 91.5963 83.6454 90.9269 80.4672M86.5431 60.0091H80.9144C80.8938 60.0091 80.8731 60.0147 80.8525 60.0166C80.0406 60.0391 79.2475 60.266 78.5481 60.6766C77.8488 61.0872 77.2656 61.6685 76.855 62.366C76.5925 62.7279 76.3506 63.1047 76.1312 63.4947C73.7069 67.8147 71.2938 72.1441 68.8919 76.4847H77.1962C77.9256 75.0841 78.6663 73.6141 79.4031 72.1291C79.8419 71.2385 80.2825 70.4304 80.6481 69.5622C81.1619 71.7541 81.4638 74.1616 81.8519 76.4829H90.0887C88.9244 70.976 87.7413 65.4841 86.5431 60.0091ZM57.6269 60.0091C56.755 60.0091 55.9 60.2454 55.1537 60.6916C54.4075 61.1379 53.7981 61.7791 53.3894 62.5441C53.0237 63.1966 52.3525 64.391 52.0206 64.9629C51.2406 66.2997 50.4775 67.6591 49.7556 68.9435C48.8237 70.6104 47.8 72.3297 46.9037 73.8991C46.6056 74.5741 46.2081 75.1985 45.7225 75.7554C44.6219 70.4716 43.4856 65.2235 42.3175 60.0091H38.0125C37.06 60.026 36.1356 60.3222 35.3556 60.8641C34.5756 61.4041 33.9737 62.1635 33.6287 63.0447L33.6025 63.0916L32.9519 64.871C31.6562 68.7466 30.3569 72.6166 29.0538 76.4829H36.5912C36.715 76.0572 36.8387 75.6335 36.9775 75.2229C37.1481 74.5085 37.4256 73.8222 37.7969 73.1866C38.0481 74.291 38.305 75.386 38.5637 76.481H52.9056C53.1775 76.0291 53.4475 75.5772 53.7175 75.131C54.0381 74.4222 54.4656 73.766 54.985 73.1847C54.925 74.276 54.8781 75.3766 54.8331 76.4791H62.4381C62.5056 70.9929 62.5788 65.4241 62.7156 60.0054H57.625L57.6269 60.0091Z" fill="white"/>
</g>
<defs>
<clipPath id="clip0_11987_7353">
<rect width="118.125" height="30" fill="white" transform="translate(15.4375 60)"/>
</clipPath>
</defs>
</svg>
