<svg width="100" height="100" viewBox="0 0 100 100" fill="none" xmlns="http://www.w3.org/2000/svg">
<rect width="100" height="100" fill="white"/>
<rect width="100" height="100" fill="#182C54"/>
<g clip-path="url(#clip0_11983_7032)">
<path d="M15.0744 58.5834H19.8937L20.398 56.2858H22.6396V58.5834H27.5149V42.6685H18.5488L15.0744 58.5834ZM22.6396 46.5352V52.195H21.1265L22.6396 46.5352ZM11.6561 53.652H15.0184L13.9536 58.5274H5.09961L8.68606 42.6685H14.1778L11.6561 53.652ZM41.8607 42.6685L38.3303 58.5274H29.3642V42.6685H34.2955V53.9322L36.8172 42.6685H41.8607ZM90.5019 42.6685H81.5918V58.5274H86.4111V56.2298H88.7086L89.213 58.5274H94.0323L90.5019 42.6685ZM86.4111 52.195V46.5352L87.8681 52.195H86.4111ZM80.0788 53.8762L81.0314 58.5834H71.3368L72.3455 47.768H68.9832L68.0866 42.7246H78.2855L77.1087 53.8762H80.0788ZM69.0392 53.8762L69.9919 58.5834H60.2973L61.306 47.768H57.9437L57.047 42.7246H67.246L66.0692 53.8762H69.0392ZM45.223 36L40.1235 58.5834H46.3998L47.1283 54.7168H52.0596L52.7881 58.5834H59.0084L53.9089 36H45.223ZM47.9128 49.7294L49.5379 41.0995L51.2191 49.7294H47.9128Z" fill="white"/>
</g>
<defs>
<clipPath id="clip0_11983_7032">
<rect width="89.1008" height="22.4153" fill="white" transform="translate(5.09961 36)"/>
</clipPath>
</defs>
</svg>
