<svg width="28" height="28" viewBox="0 0 28 28" fill="none" xmlns="http://www.w3.org/2000/svg">
<path d="M18.2776 25.6667C22.3584 25.6667 25.6664 22.3586 25.6664 18.2778C25.6664 14.197 22.3584 10.8889 18.2776 10.8889C14.1968 10.8889 10.8887 14.197 10.8887 18.2778C10.8887 22.3586 14.1968 25.6667 18.2776 25.6667Z" fill="#036AA2"/>
<path d="M22.9447 10.1112C22.7942 10.1112 22.6424 10.0822 22.4981 10.0224C22.062 9.84159 21.778 9.41635 21.778 8.94455V6.61122C21.778 5.11042 20.5566 3.889 19.0558 3.889H18.278C17.6338 3.889 17.1113 3.36649 17.1113 2.72233C17.1113 2.07818 17.6338 1.55566 18.278 1.55566H19.0558C21.6868 1.55566 23.8561 3.57686 24.09 6.14866L24.842 5.39747C25.2978 4.94169 26.036 4.94169 26.4916 5.39747C26.9473 5.85324 26.9474 6.59139 26.4916 7.04701L23.7694 9.76923C23.546 9.99261 23.2485 10.1112 22.9447 10.1112Z" fill="#036AA2"/>
<path d="M9.7224 26.4444H8.94463C6.31356 26.4444 4.14434 24.4231 3.91038 21.8513L3.15844 22.6025C2.70266 23.0582 1.96438 23.0582 1.50877 22.6025C1.05314 22.1467 1.05299 21.4086 1.50877 20.9529L4.23098 18.2307C4.56512 17.8966 5.06803 17.7963 5.50249 17.9778C5.93851 18.1585 6.22254 18.5838 6.22254 19.0556V21.389C6.22254 22.8898 7.44397 24.1112 8.94477 24.1112H9.72254C10.3667 24.1112 10.8892 24.6337 10.8892 25.2779C10.8892 25.922 10.3666 26.4444 9.7224 26.4444Z" fill="#036AA2"/>
<path d="M7.74137 16.7427C7.61833 16.7427 7.49215 16.7229 7.36771 16.6811C4.35693 15.6633 2.3335 12.8667 2.3335 9.72214C2.3335 5.64799 5.64821 2.33325 9.72237 2.33325C12.8669 2.33325 15.6635 4.35675 16.6828 7.36831C16.8879 7.97902 16.5614 8.64056 15.9506 8.84714C15.3354 9.05372 14.6791 8.72564 14.471 8.1157C13.7738 6.05273 11.8658 4.66659 9.72237 4.66659C6.93481 4.66659 4.66683 6.93459 4.66683 9.72214C4.66683 11.8655 6.05218 13.7736 8.11515 14.4708C8.72586 14.6766 9.05239 15.339 8.84737 15.9497C8.68186 16.4358 8.22748 16.7427 7.74137 16.7427Z" fill="#036AA2"/>
</svg>
