<svg width="28" height="28" viewBox="0 0 28 28" fill="none" xmlns="http://www.w3.org/2000/svg">
<path d="M25.4683 10.4192L24.6004 6.02474C24.3463 4.90629 23.4982 4.19914 22.4379 4.32669C21.3776 4.45425 20.6109 5.42306 20.7396 6.48907L21.1059 10.5687C19.588 11.5356 18.9331 12.8256 18.7772 14.1314C18.7772 14.1314 17.4772 11.6333 19.5295 8.99227L12.49 1.95291C11.8828 1.3461 10.8972 1.3461 10.2901 1.95291C9.68298 2.5602 9.68298 3.54565 10.2901 4.15294L15.5148 9.37742C15.8184 9.68122 15.8184 10.1742 15.5148 10.4777C15.2113 10.7812 14.7185 10.7812 14.4148 10.4777L7.81522 3.87791C7.20809 3.27062 6.22249 3.27062 5.61535 3.87791C5.00822 4.4852 5.00822 5.47065 5.61535 6.07794L12.2151 12.6777C12.5186 12.9812 12.5186 13.4737 12.2151 13.7775C11.9115 14.081 11.4187 14.081 11.1152 13.7775L5.89038 8.55251C5.28324 7.94569 4.29764 7.94569 3.69051 8.55251C3.08338 9.1598 3.08338 10.1452 3.69051 10.7525L8.91531 15.977C9.21895 16.2808 9.21895 16.7735 8.91531 17.0773C8.61182 17.3808 8.11886 17.3808 7.81538 17.0773L4.24055 13.5025C3.63358 12.8956 2.64844 12.8952 2.04131 13.5017C1.43464 14.109 1.4348 15.0941 2.04178 15.7014L10.5653 24.2246C13.6022 27.2616 18.5277 27.2616 21.5646 24.2246L23.7645 22.0246C28.0269 17.7623 25.9941 13.7456 25.4683 10.4192Z" fill="#036AA2"/>
</svg>
