<svg width="60" height="60" viewBox="0 0 60 60" fill="none" xmlns="http://www.w3.org/2000/svg">
<rect width="60" height="60" rx="15" fill="url(#paint0_linear_12082_5229)"/>
<g clip-path="url(#clip0_12082_5229)">
<path d="M34.2769 24.5556C33.6329 24.5556 33.1102 24.0329 33.1102 23.3889V19.5001C33.1102 19.2854 32.936 19.1112 32.7214 19.1112H27.2769C27.0622 19.1112 26.888 19.2854 26.888 19.5001V23.3889C26.888 24.0329 26.3654 24.5556 25.7214 24.5556C25.0774 24.5556 24.5547 24.0329 24.5547 23.3889V19.5001C24.5547 17.9989 25.7758 16.7778 27.2769 16.7778H32.7214C34.2225 16.7778 35.4436 17.9989 35.4436 19.5001V23.3889C35.4436 24.0329 34.9209 24.5556 34.2769 24.5556Z" fill="white"/>
<path d="M43.2028 35.5038L40.2558 34.5224L39.2738 31.5754C39.115 31.0998 38.6691 30.7778 38.1672 30.7778C37.6652 30.7778 37.2192 31.0998 37.0605 31.5754L36.0785 34.5224L33.1315 35.5038C32.6552 35.6632 32.334 36.1084 32.334 36.6112C32.334 37.1139 32.6552 37.5591 33.1315 37.7186L36.0785 38.7L37.0605 41.647C37.2194 42.1225 37.6652 42.4445 38.1672 42.4445C38.6691 42.4445 39.1151 42.1225 39.2738 41.647L40.2558 38.7L43.2028 37.7186C43.6791 37.5591 44.0003 37.1139 44.0003 36.6112C44.0003 36.1084 43.6791 35.6632 43.2028 35.5038Z" fill="white"/>
<path d="M34.3472 40.8888L34.2326 40.5449L32.3896 39.9311C30.9638 39.4538 29.9994 38.119 29.9994 36.6111C29.9994 35.1031 30.9638 33.7683 32.3896 33.291L32.393 33.2898L34.2326 32.6772L34.8456 30.8376C35.3216 29.4109 36.6585 28.4444 38.166 28.4444C39.6738 28.4444 41.0095 29.4104 41.4857 30.8361L42.0992 32.6772L42.4436 32.7919V26.4999C42.4436 24.1402 40.5256 22.2222 38.1658 22.2222H21.8325C19.4727 22.2222 17.5547 24.1402 17.5547 26.4999V36.6111C17.5547 38.9708 19.4727 40.8888 21.8325 40.8888H34.3472Z" fill="white"/>
</g>
<defs>
<linearGradient id="paint0_linear_12082_5229" x1="56" y1="6" x2="6" y2="60" gradientUnits="userSpaceOnUse">
<stop stop-color="#003C54"/>
<stop offset="1" stop-color="#2DA28C"/>
</linearGradient>
<clipPath id="clip0_12082_5229">
<rect width="28" height="28" fill="white" transform="translate(16 16)"/>
</clipPath>
</defs>
</svg>
