<svg width="24" height="24" viewBox="0 0 24 24" fill="none" xmlns="http://www.w3.org/2000/svg">
<path d="M7.06836 2.5621C7.86162 2.32418 8.69922 2.77488 8.9375 3.56796C9.1755 4.36132 8.72486 5.19888 7.93164 5.4371L7.5625 5.54648C5.5441 6.1523 4.1359 7.95406 4.01172 10.0367C4.17142 10.0144 4.33414 9.9996 4.5 9.9996H7.5C9.43322 9.9996 10.9999 11.5676 11 13.4996V16.4996C11 18.4317 9.43332 19.9996 7.5 19.9996H4.5C2.56668 19.9996 1 18.4317 1 16.4996V10.3355C1.00023 6.80294 3.31752 3.68858 6.70118 2.67344L7.06836 2.5621Z" fill="#B8C1CD"/>
<path d="M19.0684 2.5621C19.8616 2.32418 20.6992 2.77488 20.9376 3.56796C21.1756 4.36132 20.7248 5.19888 19.9316 5.4371L19.5625 5.54648C17.5441 6.1523 16.1359 7.95406 16.0117 10.0367C16.1714 10.0144 16.3341 9.9996 16.5 9.9996H19.5C21.4332 9.9996 22.9998 11.5676 23 13.4996V16.4996C23 18.4317 21.4334 19.9996 19.5 19.9996H16.5C14.5667 19.9996 13 18.4317 13 16.4996V10.3355C13.0002 6.80294 15.3175 3.68858 18.7012 2.67344L19.0684 2.5621Z" fill="#B8C1CD"/>
</svg>
