<svg width="77" height="50" viewBox="0 0 77 50" fill="none" xmlns="http://www.w3.org/2000/svg">
<path d="M30.624 34.104C30.624 38.28 29 41.876 25.752 44.892C22.736 47.676 18.908 49.068 14.268 49.068C9.86 49.068 6.38 47.792 3.828 45.24C1.276 42.456 0 38.86 0 34.452C0 24.5117 7.99228 13.6249 23.9768 1.79171C25.3231 0.79509 27.2251 1.13039 28.1741 2.51067L32.5233 8.83681C33.4142 10.1327 33.1499 11.8988 31.9235 12.8832C24.0782 19.1802 20.0491 22.5419 19.836 22.968C27.028 25.288 30.624 29 30.624 34.104ZM72.732 34.8C72.732 38.976 71.108 42.572 67.86 45.588C64.844 48.372 61.016 49.764 56.376 49.764C51.968 49.764 48.488 48.488 45.936 45.936C43.384 43.152 42.108 39.556 42.108 35.148C42.108 25.2077 50.1003 14.3209 66.0848 2.48772C67.4311 1.4911 69.3331 1.8264 70.2821 3.20667L74.5811 9.45973C75.4925 10.7854 75.2027 12.6019 73.948 13.6088C73.1276 14.2671 72.1423 15.0669 70.992 16.008C68.44 17.864 66.352 19.372 64.728 20.532C63.336 21.692 62.408 22.736 61.944 23.664C69.136 25.984 72.732 29.696 72.732 34.8Z" fill="white"/>
</svg>
