<svg width="150" height="150" viewBox="0 0 150 150" fill="none" xmlns="http://www.w3.org/2000/svg">
<rect width="150" height="150" fill="#00303B"/>
<path fill-rule="evenodd" clip-rule="evenodd" d="M103.345 35.605C98.5507 35.605 94.6777 39.489 94.6777 44.283C94.6777 49.0659 98.5507 52.9388 103.345 52.9388C108.116 52.9388 112 49.0659 112 44.283C112 39.489 108.116 35.605 103.345 35.605Z" fill="#48D87E"/>
<path fill-rule="evenodd" clip-rule="evenodd" d="M84.3328 72.0701L95.1636 57.8102C95.7185 57.0888 95.7629 56.0901 95.2746 55.3133L90.6804 47.9336C90.2698 47.29 89.5595 46.8905 88.7938 46.9016L68.952 47.0348H58.0657C57.2112 47.0348 56.8339 48.1001 57.4997 48.6328L60.5514 51.0963C60.9731 51.4404 61.4836 51.6734 62.0274 51.7733L80.9259 55.3355L57.5441 80.4596L26.7826 84.8319C25.7173 84.9761 25.2623 86.2745 25.9947 87.0513L29.0021 90.2806C29.5902 90.9131 30.4336 91.2682 31.2992 91.2571L61.0064 90.7689C62.105 90.7467 63.1815 90.436 64.1247 89.87L71.2381 85.531L86.2526 97.4605C86.8518 97.9266 87.2402 98.6035 87.3401 99.3581L90.1921 120.41C90.3253 121.397 91.1797 122.141 92.1785 122.141H93.7099C94.8085 122.141 95.7074 121.253 95.7074 120.143L95.7962 96.7836C95.8073 95.574 95.4189 94.3977 94.6976 93.4322L81.5917 75.7654L84.3328 72.0701Z" fill="#48D87E"/>
</svg>
