<svg width="100" height="100" viewBox="0 0 100 100" fill="none" xmlns="http://www.w3.org/2000/svg">
<rect width="100" height="100" fill="white"/>
<rect width="100" height="100" fill="#EFEFEF"/>
<g clip-path="url(#clip0_11983_7047)">
<path d="M53.3568 78.0212L54.4621 82.2949C57.299 82.0001 59.6937 81.337 62.1989 80.2317L61.0937 75.958L62.0516 75.4791C62.5305 75.1475 63.0095 75.0001 63.4516 74.7054C64.0779 74.3738 64.8884 73.9317 65.5147 73.4528L66.2884 72.8264L69.4568 75.9949C71.6674 74.2633 73.5463 72.5317 75.1305 70.3212L72.1095 67.1528L72.7358 66.3791C73.0674 65.9001 73.3621 65.6054 73.5095 65.1265C73.9884 64.5001 74.2832 63.6896 74.6147 63.0633L75.0937 62.1054L79.3674 63.2107C80.4726 60.6686 81.099 58.1633 81.4305 55.4738L77.1568 54.2212L77.3042 53.2633C77.3042 52.637 77.4516 52.3054 77.4516 51.6791V48.1791L81.7253 47.0738C81.3937 44.237 80.7674 41.8422 79.6621 39.337L75.3884 40.4422L74.9095 39.4843C74.7621 39.0054 74.4305 38.5265 74.1358 38.0475C73.8411 37.4212 73.3621 36.6475 72.8832 35.9843L72.2568 35.2107L75.4253 32.0422C73.6937 29.8317 71.7779 27.9528 69.5674 26.3686L66.399 29.3528L65.6253 28.7264C65.1463 28.3949 64.8516 28.2475 64.1884 27.7685C63.5621 27.2896 62.7884 26.9949 62.1253 26.6633L61.1674 26.1843L62.2726 21.9107C59.7305 20.8054 57.2253 20.1791 54.5358 19.8475L53.2832 24.1212L52.3253 23.9738C51.699 23.9738 51.3674 23.7896 50.7411 23.7896H47.2779L46.1726 19.5159C43.4832 20.1422 41.1253 20.9528 38.5832 21.8738L39.6884 26.1475L38.5832 26.6264C38.1042 26.9212 37.6253 27.1054 37.1463 27.2528C36.52 27.5475 35.7095 28.0264 35.0832 28.5054L34.3095 29.1317L31.1411 25.9633C29.0779 27.6949 27.199 29.6107 25.6147 31.637L28.599 34.8054L27.9726 35.5791C27.7884 36.058 27.4937 36.537 27.199 37.0159C26.72 37.6422 26.4253 38.4528 26.0937 39.0791L25.6147 40.037L21.3411 38.9317C20.2358 41.4738 19.6095 43.9791 19.2779 46.6686L23.5516 47.9212L23.4042 49.0264V54.0738L19.2042 55.1054C19.5358 57.9422 20.1621 60.337 21.2674 62.8422L25.5411 61.737L26.02 62.6949C26.1674 63.1738 26.499 63.6528 26.7937 64.0949C27.0884 64.8686 27.5674 65.5317 28.0463 66.158L28.6726 66.9317L25.5042 70.1001C27.2358 72.3107 29.0042 74.1896 31.2147 75.7738L34.3832 72.7528L35.1568 73.3791C35.6358 73.7107 35.9305 74.0054 36.4095 74.337C37.0358 74.8159 37.8463 75.1107 38.4726 75.4422L39.4305 75.9212L38.3253 80.1949C40.8674 81.3001 43.3726 81.9265 46.0621 82.258L47.3147 77.9843L48.2726 78.1317C48.7516 78.1317 49.2305 78.2791 49.8568 78.2791H52.2147L53.3568 78.0212ZM52.5832 84.9843L51.4779 80.5633H49.12L47.8674 84.837L46.7621 84.6528C42.9674 84.358 39.6516 83.4001 36.1884 81.8159L35.2305 81.337L36.4832 76.9159C36.0042 76.5843 35.5253 76.437 35.2305 76.1422C35.0463 75.958 34.7516 75.8107 34.6042 75.8107L31.4358 78.9791L30.6621 78.3528C27.4937 76.1422 25.1358 73.7843 22.9253 70.6159L22.299 69.658L25.4674 66.4896C25.1726 66.0107 24.9884 65.7159 24.6937 65.237C24.5463 65.0896 24.399 64.758 24.399 64.6107L20.1253 65.7159L19.6463 64.758C18.0621 61.2949 17.1042 57.9791 16.8095 54.1843L16.6621 53.2264L21.0832 52.1212V49.7633L16.699 48.4738L16.8463 47.3686C17.1779 43.5738 18.099 40.258 19.6832 36.7949L20.1621 35.837L24.5832 37.0896C24.9147 36.6107 25.0621 36.1317 25.3568 35.837C25.5042 35.6528 25.6884 35.358 25.6884 35.2107L22.52 32.0422L23.1463 31.2685C25.2095 28.1001 27.5674 25.7422 30.7358 23.3843L31.6937 22.758L34.8621 25.9264C35.3411 25.6317 35.6358 25.4475 36.1147 25.1528C36.2621 25.1528 36.5937 25.1528 36.7411 25.0054L35.6358 20.5843L36.5937 20.1054C40.0937 18.5212 43.4095 17.5633 47.2042 17.2686H48.3095L49.4147 21.6896H51.7726L52.8779 17.4159L53.9832 17.5633C57.7779 17.8949 61.0937 18.8159 64.5937 20.4001L65.5516 20.6949L64.299 25.1159C64.7779 25.4107 65.2568 25.5949 65.5516 25.8896C65.6989 26.037 66.0305 26.1843 66.1779 26.1843L69.3463 23.0159L70.3042 23.6422C73.4726 25.8528 75.8305 28.2107 78.0411 31.3791L78.6674 32.337L75.4989 35.5054C75.7937 35.9843 75.9779 36.2791 76.2726 36.758C76.42 36.9054 76.5674 37.237 76.5674 37.3843L80.8411 36.2791L81.32 37.237C82.9042 40.737 83.8621 44.0528 84.1568 47.8475L84.3042 48.9528L79.8832 50.058V52.4159L84.1568 53.6686L83.9726 54.7738C83.6779 58.5686 82.72 61.8843 81.1358 65.3475L80.8411 66.158L76.42 64.9054C76.0884 65.3843 75.9411 65.8633 75.6463 66.158C75.4989 66.3054 75.3147 66.637 75.3147 66.7843L78.4832 69.9528L77.8568 70.9107C75.6463 74.0791 73.2884 76.437 70.12 78.6475L69.3463 79.2738L66.1779 76.1054C65.6989 76.4001 65.4042 76.5843 64.9253 76.8791C64.7779 77.0264 64.4463 77.0264 64.299 77.1738L65.4042 81.5949L64.299 81.8896C60.8358 83.4738 57.52 84.4317 53.7253 84.7264L52.5832 84.9843ZM44.6621 55.437C43.0779 56.0633 42.3042 56.8738 41.6411 58.458C41.0147 60.0422 41.0147 61.2949 41.9358 62.8791C41.1621 62.2528 40.3516 62.1054 39.3937 62.2528C38.1411 62.4001 37.5147 63.2107 37.0358 64.3159C36.7411 64.9422 37.0358 65.9001 37.6621 66.0475C37.9568 66.1949 38.2884 66.0475 38.62 65.9001C38.9147 65.5685 39.3937 65.5685 39.7253 65.7159C40.3516 66.0475 40.8305 66.0475 41.1621 66.4896C42.12 67.2633 43.3726 67.2633 44.3305 66.4896C45.2884 65.7159 45.4358 64.2791 44.6621 63.3212C44.4779 62.6949 44.4779 62.3633 44.8095 61.9212C45.2884 61.1475 46.2463 60.8159 47.1674 61.1475C47.3147 60.6686 47.4621 60.5212 47.7937 60.1896C48.0884 59.8949 48.2726 59.7107 48.7516 59.5633L44.6621 55.437ZM46.7253 29.6843L51.4779 29.8317L52.5832 27.4738H51.6253L50.3726 28.2475C50.2253 27.7686 50.2253 27.6212 49.8937 27.1422C49.7463 26.6633 49.599 26.3686 49.2674 26.037L48.4937 26.8107C48.1989 27.1422 48.1989 27.437 47.8674 27.9159L46.7621 27.1422L45.5095 26.958L46.7253 29.6843ZM31.6937 32.8528L30.2568 40.5896H30.1095V41.2159H29.4832C29.0042 41.5475 28.7095 41.8422 28.5253 42.4686C28.3779 43.2422 28.6726 43.7212 29.4832 44.2001L30.1095 44.9738L30.2568 45.9317H31.9884V44.9738H32.4674L37.5147 49.3949L58.8463 38.1949C60.2463 37.5686 61.2042 36.9422 62.4568 35.9843C63.7095 35.0265 64.3726 34.4001 65.2937 32.9633C65.4411 32.8159 65.4411 32.6686 65.4411 32.4843C65.4411 32.1896 65.2937 32.0054 65.1463 31.7107L63.0832 29.9791C62.7884 29.6843 62.4568 29.6843 62.1253 29.8317C61.9779 29.9791 61.6463 31.0843 61.4989 31.2685C61.02 32.5212 60.3937 33.0001 59.62 34.1054C57.4095 36.7949 55.6779 38.0475 52.5095 39.4843L52.1779 38.858L52.3253 37.7528V37.1265L53.9095 37.7528C53.9095 37.1264 53.9095 36.7949 53.7621 36.3159C53.6147 35.6896 53.2832 35.2107 52.8042 34.7317L54.0568 35.2107C53.5779 33.7738 53.099 32.8528 51.8463 31.8949C50.5937 30.7896 49.4884 30.458 47.7568 30.458C46.6516 30.458 46.0253 30.6054 44.92 31.0843V31.858C44.1463 31.858 43.6674 32.0054 43.1884 32.6317C42.5621 33.258 42.4147 33.737 42.4147 34.6949C43.1884 34.2159 43.8516 34.0686 44.7726 34.0686H46.6516V32.4843L47.2779 32.6686H48.5305C48.6779 32.6686 48.8253 32.8159 48.8253 32.9633C48.8253 33.1107 48.6779 33.4422 48.5305 33.4422L47.0937 34.2159L46.9463 34.9896H46.4674V34.5107H44.1095C44.5884 35.137 44.8832 35.2843 45.5463 35.6159C46.0253 35.9475 46.32 35.9475 46.799 36.0949C46.799 36.3896 46.7989 36.5738 46.6516 36.7212C46.5042 37.2001 46.3568 37.3475 45.8779 37.8265C44.92 38.9317 44.4411 39.558 43.52 40.6633C42.4147 41.7685 41.7884 42.3949 40.499 43.5001L42.4147 43.3528C42.5621 43.3528 43.0411 43.3528 42.8937 43.5001C42.7463 43.6843 42.7463 43.8317 42.4147 44.1265C42.0832 44.458 42.0832 44.6054 41.7884 45.0843C41.6411 45.5633 41.4937 45.7107 41.4937 46.1896L34.3832 43.1686C34.6779 42.8738 34.8621 42.6896 35.0095 42.3949C35.1937 42.1001 35.1937 41.7686 35.3411 41.437C35.3411 41.2896 35.1937 41.1054 35.0095 41.1054C35.0095 41.1054 34.5305 41.1054 34.3832 41.2896L33.7568 41.5843C33.6095 41.7317 33.4253 41.7317 33.1305 41.5843C32.9832 41.437 32.8358 41.2896 32.8358 41.1054V40.4791H32.5042L31.6937 32.8528ZM33.4253 52.4159V50.6843C33.4253 50.537 33.2779 50.3896 33.1305 50.3896C32.9832 50.3896 32.6516 50.3896 32.6516 50.6843C32.3568 51.0159 32.1726 51.3107 31.6937 51.6422C31.399 51.937 31.2147 52.1212 30.7358 52.2685C30.4411 52.6001 30.2568 52.6001 29.7779 52.6001C29.4463 52.6001 29.299 52.6001 29.0042 52.4528C28.6726 52.2685 28.5253 52.2685 28.2305 52.2685C27.899 52.2685 27.6042 52.2685 27.2726 52.4528C26.6463 52.6001 26.3147 52.7475 26.02 53.2264C25.5411 53.7054 25.5411 54.1843 25.5411 54.8107H26.1674C26.3147 54.8107 26.499 54.958 26.499 55.1054C26.9779 55.5843 27.2726 55.7317 27.7516 55.8791C28.5253 56.1738 29.0042 56.1738 29.8147 55.8791L45.7674 53.0422L45.1411 52.4159C44.9937 52.2317 44.9937 52.0843 44.9937 51.937C44.9937 51.7896 45.1411 51.6422 45.4726 51.6422L46.4305 51.3107C46.4305 51.1633 46.7253 51.0159 46.9095 51.1633C47.0937 51.1633 47.2411 51.458 47.0937 51.6422L46.9095 52.1212L45.0305 54.8107L51.0358 60.4843C50.7042 60.337 50.4095 60.337 49.9305 60.337C49.6358 60.337 49.4516 60.4843 49.1568 60.6317C48.5305 61.1107 48.3832 61.4054 48.0516 61.8843C47.4253 62.8422 47.2779 63.4686 47.2779 64.5738C47.2779 65.5317 47.4253 66.158 47.9042 66.9317L48.3832 66.637C48.3832 66.4528 48.7147 66.3054 49.0095 66.4528C49.1568 66.637 49.1568 66.7843 49.1568 66.9317C49.3042 67.2264 49.4884 67.4107 49.6358 67.7054C50.2621 68.4791 50.8884 68.958 51.8463 69.437L51.9937 73.0843C51.3674 71.8317 49.9305 71.5001 48.6779 71.9791C47.72 72.3107 47.0937 73.0843 46.9463 74.1896C46.9463 75.1475 47.1305 75.7738 47.9042 76.4001L48.8621 75.6265C49.0095 75.4791 49.3411 75.3317 49.6358 75.3317C49.9305 75.3317 50.1147 75.4791 50.2621 75.6265C50.8884 76.1054 51.5147 76.2528 52.4726 76.2528C53.4305 76.1054 54.0568 75.7738 54.5358 75.0001L57.0779 68.3686C55.6411 68.8475 54.0568 67.7422 54.0568 66.3054C54.0568 65.5317 55.1621 63.9475 55.7884 63.7633C56.8937 65.2001 58.3305 65.8265 60.0621 65.4949C61.499 65.3475 62.6042 64.7212 63.2305 63.4317C62.9358 63.2475 62.9358 63.1001 62.7516 62.9528C62.6042 62.4738 62.4568 62.1791 62.7516 61.7001C63.0832 61.2212 63.0832 60.9264 62.9358 60.4475C62.9358 60.1159 62.7516 59.9685 62.6042 59.8212L62.4568 58.7159C62.3095 58.5317 62.1621 58.5317 61.9779 58.5317C61.8305 58.7159 61.8305 58.8633 61.8305 58.8633C61.6832 58.8633 61.5358 59.0107 61.3516 58.8633C60.7253 58.3843 59.7674 57.6107 59.2884 56.3212C58.9937 55.3633 58.6621 54.737 59.1411 53.9633C59.4358 53.4843 59.62 52.858 60.2463 53.0054C60.7253 53.1896 60.8726 53.4843 61.02 53.7791C61.1674 54.258 60.7253 54.5528 60.7253 55.0317C60.7253 55.658 60.7253 55.9896 60.8726 56.4686C61.1674 57.4265 61.8305 57.9054 62.7516 58.0528C63.0832 57.9054 63.0832 57.7212 63.2305 57.4264C63.3779 57.1317 63.3779 56.9475 63.3779 56.6528C64.3358 55.8791 64.8147 55.0686 64.8147 53.8159C64.8147 52.4159 64.0411 51.458 62.7516 50.8317C61.9779 50.3528 61.3516 50.2054 60.3937 50.3528C59.2884 50.5001 58.8095 50.9791 58.0358 51.7896C57.2621 52.7475 56.9305 53.5212 57.0779 54.8107C57.0779 55.9159 57.5568 56.5422 58.1832 57.5001C58.4779 58.1264 59.2884 58.937 60.0621 60.0422C60.3568 60.6686 60.3568 61.4791 59.7674 61.958C59.1411 62.437 58.5147 62.1054 57.7042 61.7738C57.2253 61.4791 57.0779 61.2949 56.9305 60.8159C56.6358 60.1896 56.9305 59.7107 56.7832 58.937C56.6358 58.3107 56.4516 57.9791 56.1568 57.5001L54.4253 54.3317C53.799 53.3738 53.6516 52.6001 53.4674 51.4949C53.4674 50.7212 53.2832 50.2422 53.6147 49.4317C54.5726 50.058 55.199 50.2054 56.4516 50.3896C57.8884 50.6843 58.6621 50.6843 60.0989 50.3896C59.9516 50.0949 59.9516 49.7633 60.0989 49.4317C60.2463 49.1001 60.2463 49.1001 60.5779 48.8054C62.3095 48.8054 63.2674 48.5107 64.8516 47.8475C67.6884 46.5949 69.1253 45.158 70.5253 42.4686C70.5253 42.3212 70.5253 42.1738 70.3779 42.1738H69.7884C69.4937 42.3212 69.1621 42.3212 68.8305 41.9896C68.6832 41.8422 68.6832 41.5107 68.8305 41.2159C69.7884 39.4843 70.0832 38.3791 70.0832 36.3159C70.0832 34.1054 69.6042 32.8528 68.3516 30.937C68.1674 30.7896 68.02 30.6422 67.7253 30.7896C67.3937 30.7896 67.2463 31.1212 67.2463 31.4159C66.7674 32.3738 66.2884 32.8528 65.6621 33.6265C64.0779 35.358 62.9726 36.3159 60.9095 37.4212L33.4253 52.4159ZM100.441 18.4475H112.12C115.767 18.4475 118.936 22.3896 118.936 25.7054V41.0317H107.699V29.6843C107.699 28.7264 106.741 27.7685 105.82 27.7685C104.715 27.7685 104.088 28.5422 104.088 29.8317V39.7791C104.088 42.3212 107.883 44.2001 107.883 44.2001C108.031 44.3475 113.078 47.3686 114.662 48.4738C117.831 50.3528 118.752 52.7475 118.752 54.6265V74.8528C118.752 80.0843 114.331 83.6949 110.536 83.6949H100.883C98.1937 83.6949 92.9989 80.858 92.9989 74.8528V56.5422H104.199V72.7896C104.199 73.4159 104.825 74.2264 106.078 74.2264C107.331 74.2264 107.662 73.1212 107.662 72.6422V56.358C107.662 54.6264 104.052 53.337 98.6726 49.8738C95.0253 47.5159 92.9989 45.9317 92.9989 41.8054V26.3317C92.9989 24.6001 93.7726 22.2054 95.2095 20.8054C96.9779 18.9264 98.8568 18.4475 100.441 18.4475ZM127.631 18.1528H144.394L150.067 83.5843H139.015L138.057 70.137H133.783L133.009 83.5843H121.957L127.631 18.1528ZM135.994 38.3791L134.262 60.8159H137.725L135.994 38.3791ZM170.588 18.4475C175.967 18.4475 178.952 22.7212 178.952 27.2896V41.658H167.42V30.2738C167.42 29.5001 166.941 28.5422 165.836 28.5422C164.583 28.5422 164.104 29.5001 164.104 30.1265V73.2685C164.104 74.3738 164.878 75.0001 165.836 75.0001C166.794 75.0001 167.42 74.2264 167.42 73.2685V56.358H178.952V74.6686C178.952 79.4212 175.931 83.5107 170.588 83.5107H161.12C155.741 83.5107 152.757 79.4212 152.757 74.6686V27.1422C152.757 22.5738 155.778 18.3001 161.12 18.3001H170.588V18.4475ZM183.225 18.4475H199.988L202.678 42.4686L205.515 18.4475H222.278V83.6949H211.078V52.8949L206.325 83.6949H199.215L194.462 52.8949V83.6949H183.262V18.4475H183.225ZM226.036 18.4475H237.567V83.6949H226.036V18.4475Z" fill="#EE0000"/>
</g>
<defs>
<clipPath id="clip0_11983_7047">
<rect width="82.1579" height="91" fill="white" transform="translate(9 5)"/>
</clipPath>
</defs>
</svg>
