<svg width="24" height="24" viewBox="0 0 24 24" fill="none" xmlns="http://www.w3.org/2000/svg">
<path d="M17.9752 21.72C17.8164 21.72 17.6561 21.6822 17.5104 21.6054L12 18.7096L6.48955 21.6054C6.15235 21.7818 5.74341 21.752 5.43621 21.5293C5.12887 21.3053 4.97529 20.9258 5.03902 20.5508L6.09235 14.4166L1.63529 10.0722C1.36315 9.80661 1.26422 9.40875 1.38262 9.04688C1.49982 8.68488 1.81235 8.42128 2.18995 8.36648L8.34875 7.47128L11.1026 1.89061C11.4411 1.20834 12.5584 1.20834 12.8969 1.89061L15.6508 7.47128L21.8096 8.36648C22.1872 8.42114 22.4997 8.68488 22.6169 9.04688C22.7354 9.40888 22.6364 9.80661 22.3642 10.0722L17.9072 14.4166L18.9605 20.5508C19.0244 20.9257 18.8706 21.3053 18.5633 21.5293C18.3888 21.6556 18.1822 21.72 17.9752 21.72Z" fill="#FF9500"/>
</svg>
