<svg width="28" height="28" viewBox="0 0 28 28" fill="none" xmlns="http://www.w3.org/2000/svg">
<g clip-path="url(#clip0_11982_7000)">
<path d="M27.5676 13.3731L24.7738 9.02842C24.2713 8.24597 23.4142 7.77775 22.484 7.77775H20.2222V7.38886C20.2222 5.02908 18.3042 3.11108 15.9444 3.11108H4.27778C1.918 3.11108 0 5.02908 0 7.38886V18.2778C0 20.6375 1.918 22.5555 4.27778 22.5555H4.40378C4.32911 22.3082 4.27778 22.05 4.27778 21.7778C4.27778 20.2735 5.49733 19.0555 7 19.0555C8.50267 19.0555 9.72222 20.2735 9.72222 21.7778C9.72222 22.05 9.66933 22.3082 9.59622 22.5555H16.4609C16.3862 22.3082 16.3349 22.05 16.3349 21.7778C16.3349 20.2735 17.5544 19.0555 19.0571 19.0555C20.5598 19.0555 21.7793 20.2735 21.7793 21.7778C21.7793 22.05 21.7264 22.3082 21.6533 22.5555H23.7238C26.0836 22.5555 28.0016 20.6375 28.0016 18.2778V14.8462C28.0016 14.3235 27.8507 13.8133 27.5676 13.3731ZM20.2222 13.2222V10.1111H22.484C22.6162 10.1111 22.7391 10.178 22.8107 10.29L24.696 13.2222H20.2222Z" fill="#036AA2"/>
<path d="M7.00022 25.6667C4.85666 25.6667 3.11133 23.9214 3.11133 21.7778C3.11133 19.6342 4.85666 17.8889 7.00022 17.8889C9.14377 17.8889 10.8891 19.6342 10.8891 21.7778C10.8891 23.9214 9.14377 25.6667 7.00022 25.6667ZM7.00022 20.2222C6.14311 20.2222 5.44466 20.9207 5.44466 21.7778C5.44466 22.6349 6.14311 23.3334 7.00022 23.3334C7.85733 23.3334 8.55577 22.6349 8.55577 21.7778C8.55577 20.9207 7.85733 20.2222 7.00022 20.2222Z" fill="#036AA2"/>
<path d="M19.0554 25.6667C16.9118 25.6667 15.1665 23.9214 15.1665 21.7778C15.1665 19.6342 16.9118 17.8889 19.0554 17.8889C21.1989 17.8889 22.9443 19.6342 22.9443 21.7778C22.9443 23.9214 21.1989 25.6667 19.0554 25.6667ZM19.0554 20.2222C18.1983 20.2222 17.4998 20.9207 17.4998 21.7778C17.4998 22.6349 18.1983 23.3334 19.0554 23.3334C19.9125 23.3334 20.6109 22.6349 20.6109 21.7778C20.6109 20.9207 19.9125 20.2222 19.0554 20.2222Z" fill="#036AA2"/>
</g>
<defs>
<clipPath id="clip0_11982_7000">
<rect width="28" height="28" fill="white"/>
</clipPath>
</defs>
</svg>
